<?xml version="1.0" encoding="UTF-8"?>

<svg xmlns="http://www.w3.org/2000/svg" version="1.1"
    xmlns:freecad="http://www.freecadweb.org/wiki/index.php?title=Svg_Namespace"
	width="420mm"
	height="297mm"
	viewBox="0 0 420 297">
	<!-- Working space 0 0 420 297 -->
	<defs>
		<radialGradient
			id="radialGradient3661"
			gradientUnits="userSpaceOnUse"
			cy="29.149"
			cx="282.65"
			gradientTransform="matrix(.14777 .23089 -.24680 .15795 -26.318 -62.617)"
			r="19.571">
				<stop stop-color="#71b2f8" offset="0"/>
				<stop stop-color="#002795" offset="1"/>
		</radialGradient>
		<radialGradient
			id="radialGradient3817"
			gradientUnits="userSpaceOnUse"
			cy="33.9"
			cx="270.58"
			gradientTransform="matrix(.26631 .065024 -.17931 .73438 -60.668 -36.938)"
			r="19.571">
				<stop stop-color="#ff6d0f" offset="0"/>
				<stop stop-color="#ff1000" offset="1"/>
		</radialGradient>
	</defs>
	<!-- Set display:none to hide FreeCAD Logo -->
	<g
		style="display:inline"
		id="freecad-logo"
		transform="translate(386, 264) scale(1.5)"
		fill-rule="evenodd"
		stroke-width=".45621">
		<path d="m0.22811 0.22835v13.256h2.9558v-5.1876h2.09v-2.0452h-2.09v-2.2075h5.1486v-3.8087l-8.1044-0.0075z"
			stroke="#370700"
			fill="url(#radialGradient3817)"/>
		<path d="m13.386 4.1792-1.7193 0.98645-0.75925-0.26348-0.72439-1.8513-1.1395 0.05988-0.51976 1.9144-0.72743 0.34835-1.8143-0.79367-0.76632 0.85156 0.98645 1.7193-0.26957 0.75702-1.8513 0.72439 0.065967 1.1417 1.9144 0.51976 0.34835 0.72743-0.79976 1.8121 0.85156 0.76632 1.7193-0.98645 0.76311 0.27179 0.7183 1.8491 1.1478-0.06375 0.51367-1.9166 0.72743-0.34835 1.8182 0.80198 0.76632-0.85156-0.98645-1.7193 0.2657-0.76533 1.8491-0.7183-0.05766-1.1456-1.9166-0.51367-0.34835-0.72743 0.7959-1.8204-0.85156-0.76632zm-2.5751 2.8195 0.35295 0.20478 0.30579 0.27725 0.24481 0.33087 0.17611 0.36787 0.10354 0.39656 0.01715 0.4064-0.0587 0.4063-0.13396 0.38571-0.2131 0.35681-0.26894 0.30192-0.33087 0.24481-0.36787 0.17611-0.39656 0.10354-0.40863 0.02325-0.4063-0.0587-0.38571-0.13396-0.35681-0.2131-0.2997-0.27503-0.24703-0.32478-0.17611-0.36787-0.10132-0.40264-0.02324-0.40863 0.05869-0.4063 0.13396-0.38571 0.21087-0.35072 0.27116-0.30801 0.33087-0.24481 0.36787-0.17611 0.40264-0.10132 0.40641-0.01715 0.4063 0.05869 0.38571 0.13396z" 
		stroke="#000137"
		fill="url(#radialGradient3661)"/>
	</g>
<g id="Ortho_0_0"
   transform="rotate(-90,96.6181,35.7153) translate(96.6181,35.7153) scale(0.5,0.5)"
  >
<g   fill="none"
   stroke="rgb(0, 0, 0)"
   stroke-dasharray="0.2,0.1)"
   stroke-linecap="butt"
   stroke-linejoin="miter"
   stroke-width="0.300000"
   transform="scale(1,-1)"
  >
<path id= "1" d=" M -40 20 L -40 120 " />
<path id= "2" d=" M -40 40 L -40 140 " />
<path id= "3" d=" M -40 20 L -40 40 " />
<path id= "4" d=" M -40 20 L 40 20 " />
<path id= "5" d=" M -40 20 L 40 20 " />
<path d="M5,20 L4.87464,20  L4.50484,20  L3.90916,20  L3.11745,20  L2.16942,20  L1.1126,20  L2.22045e-16,20  L-1.1126,20  L-2.16942,20  L-3.11745,20  L-3.90916,20  L-4.50484,20  L-4.87464,20  L-5,20 " /><path d="M-5,20 L-4.87464,20  L-4.50484,20  L-3.90916,20  L-3.11745,20  L-2.16942,20  L-1.1126,20  L-8.88178e-16,20  L1.1126,20  L2.16942,20  L3.11745,20  L3.90916,20  L4.50484,20  L4.87464,20  L5,20 " /><path id= "8" d=" M 40 20 L 40 120 " />
<path id= "9" d=" M -34.641 140 L 34.641 140 " />
<circle cx ="0" cy ="120" r ="5" /><path id= "11" d=" M -40 140 L -20 140 " />
<path id= "12" d=" M 20 140 L 40 140 " />
<path id= "13" d=" M -20 140 L 20 140 " />
<path id= "14" d=" M -40 40 L -20 40 " />
<path id= "15" d=" M -20 40 L -20 140 " />
<path id= "16" d=" M -20 40 L 20 40 " />
<path id= "17" d=" M 20 40 L 40 40 " />
<path id= "18" d=" M 40 20 L 40 40 " />
<path id= "19" d=" M 40 40 L 40 140 " />
<path id= "20" d=" M 5 40 L 5 20 " />
<path d="M5,40 L4.87464,40  L4.50484,40  L3.90916,40  L3.11745,40  L2.16942,40  L1.1126,40  L2.22045e-16,40  L-1.1126,40  L-2.16942,40  L-3.11745,40  L-3.90916,40  L-4.50484,40  L-4.87464,40  L-5,40 " /><path d="M-5,40 L-4.87464,40  L-4.50484,40  L-3.90916,40  L-3.11745,40  L-2.16942,40  L-1.1126,40  L-8.88178e-16,40  L1.1126,40  L2.16942,40  L3.11745,40  L3.90916,40  L4.50484,40  L4.87464,40  L5,40 " /><circle cx ="0" cy ="120" r ="5" /><path id= "24" d=" M 20 40 L 20 140 " />
<path id= "25" d=" M -20 40 L -20 140 " />
<path id= "26" d=" M -20 40 L 20 40 " />
<path id= "27" d=" M 20 40 L 20 140 " />
<path id= "28" d=" M 40 -20 L 40 -120 " />
<path id= "29" d=" M 40 -40 L 40 -140 " />
<path id= "30" d=" M 40 -20 L 40 -40 " />
<path id= "31" d=" M 40 -20 L -40 -20 " />
<path id= "32" d=" M 40 -20 L -40 -20 " />
<path d="M-5,-20 L-4.87464,-20  L-4.50484,-20  L-3.90916,-20  L-3.11745,-20  L-2.16942,-20  L-1.1126,-20  L-2.22045e-16,-20  L1.1126,-20  L2.16942,-20  L3.11745,-20  L3.90916,-20  L4.50484,-20  L4.87464,-20  L5,-20 " /><path d="M5,-20 L4.87464,-20  L4.50484,-20  L3.90916,-20  L3.11745,-20  L2.16942,-20  L1.1126,-20  L8.88178e-16,-20  L-1.1126,-20  L-2.16942,-20  L-3.11745,-20  L-3.90916,-20  L-4.50484,-20  L-4.87464,-20  L-5,-20 " /><path id= "35" d=" M -40 -20 L -40 -120 " />
<path id= "36" d=" M 34.641 -140 L -34.641 -140 " />
<circle cx ="0" cy ="-120" r ="5" /><path id= "38" d=" M 40 -140 L 20 -140 " />
<path id= "39" d=" M -20 -140 L -40 -140 " />
<path id= "40" d=" M 20 -140 L -20 -140 " />
<path id= "41" d=" M 40 -40 L 20 -40 " />
<path id= "42" d=" M 20 -40 L 20 -140 " />
<path id= "43" d=" M 20 -40 L -20 -40 " />
<path id= "44" d=" M -20 -40 L -40 -40 " />
<path id= "45" d=" M -40 -20 L -40 -40 " />
<path id= "46" d=" M -40 -40 L -40 -140 " />
<path id= "47" d=" M -5 -40 L -5 -20 " />
<path d="M-5,-40 L-4.87464,-40  L-4.50484,-40  L-3.90916,-40  L-3.11745,-40  L-2.16942,-40  L-1.1126,-40  L-2.22045e-16,-40  L1.1126,-40  L2.16942,-40  L3.11745,-40  L3.90916,-40  L4.50484,-40  L4.87464,-40  L5,-40 " /><path d="M5,-40 L4.87464,-40  L4.50484,-40  L3.90916,-40  L3.11745,-40  L2.16942,-40  L1.1126,-40  L8.88178e-16,-40  L-1.1126,-40  L-2.16942,-40  L-3.11745,-40  L-3.90916,-40  L-4.50484,-40  L-4.87464,-40  L-5,-40 " /><circle cx ="0" cy ="-120" r ="5" /><path id= "51" d=" M -20 -40 L -20 -140 " />
<path id= "52" d=" M 20 -40 L 20 -140 " />
<path id= "53" d=" M 20 -40 L -20 -40 " />
<path id= "54" d=" M -20 -40 L -20 -140 " />
<path id= "55" d=" M -40 -15 L -40 -5 " />
<path id= "56" d=" M -40 -15 L -40 -5 " />
<path id= "57" d=" M 40 -15 L 40 -5 " />
<path id= "58" d=" M 40 -15 L 40 -5 " />
<path d="M-40 -15 A5 5 0 0 1 -35 -20" /><path d="M-35,-20 L-34.7799,-20  L-34.1225,-20  L-33.0359,-20  L-31.5339,-20  L-29.6353,-20  L-27.3641,-20  L-24.7487,-20  L-21.8221,-20  L-18.6211,-20  L-15.1859,-20  L-11.5598,-20  L-7.78823,-20  L-3.91876,-20  L1.33227e-14,-20 " /><path d="M-40 -5 A5 5 0 0 0 -35 7.10543e-15" /><path d="M-35,3.55271e-15 L-34.7799,3.55271e-15  L-34.1225,3.55271e-15  L-33.0359,3.55271e-15  L-31.5339,3.55271e-15  L-29.6353,3.55271e-15  L-27.3641,3.55271e-15  L-24.7487,3.55271e-15  L-21.8221,0  L-18.6211,0  L-15.1859,0  L-11.5598,0  L-7.78823,-3.55271e-15  L-3.91876,-3.55271e-15  L1.77636e-14,-3.55271e-15 " /><path d="M0,-20 L3.91876,-20  L7.78823,-20  L11.5598,-20  L15.1859,-20  L18.6211,-20  L21.8221,-20  L24.7487,-20  L27.3641,-20  L29.6353,-20  L31.5339,-20  L33.0359,-20  L34.1225,-20  L34.7799,-20  L35,-20 " /><path d="M40 -15 A5 5 0 0 0 35 -20" /><path d="M4.44089e-15,-3.55271e-15 L3.91876,-3.55271e-15  L7.78823,-3.55271e-15  L11.5598,-7.10543e-15  L15.1859,-7.10543e-15  L18.6211,-7.10543e-15  L21.8221,-7.10543e-15  L24.7487,-1.06581e-14  L27.3641,-1.06581e-14  L29.6353,-1.06581e-14  L31.5339,-1.06581e-14  L33.0359,-1.06581e-14  L34.1225,-1.06581e-14  L34.7799,-1.06581e-14  L35,-1.06581e-14 " /><path d="M40 -5 A5 5 0 0 1 35 -1.06581e-14" /><path d="M40 -15 A5 5 0 0 0 35 -20" /><path d="M35,-20 L34.1225,-20  L31.5339,-20  L27.3641,-20  L21.8221,-20  L15.1859,-20  L7.78823,-20  L-1.15463e-14,-20  L-7.78823,-20  L-15.1859,-20  L-21.8221,-20  L-27.3641,-20  L-31.5339,-20  L-34.1225,-20  L-35,-20 " /><path d="M-40 -15 A5 5 0 0 1 -35 -20" /><path d="M-5,-20 Q-4.98428,-20 -4.96856,-20  Q-4.9216,-20 -4.87464,-20  Q-4.79703,-20 -4.71942,-20  Q-4.61213,-20 -4.50484,-20  Q-4.36923,-20 -4.23362,-20  Q-4.07139,-20 -3.90916,-20  Q-3.72235,-20 -3.53553,-20  Q-3.32649,-20 -3.11745,-20  Q-2.8888,-20 -2.66016,-20  Q-2.41479,-20 -2.16942,-20  Q-1.91041,-20 -1.6514,-20  Q-1.382,-20 -1.1126,-20  Q-0.561797,-20 -1.22125e-15,-20 " /><path d="M0,-20 L0.559822,-20  L1.1126,-20  L1.6514,-20  L2.16942,-20  L2.66016,-20  L3.11745,-20  L3.53553,-20  L3.90916,-20  L4.23362,-20  L4.50484,-20  L4.71942,-20  L4.87464,-20  L4.96856,-20  L5,-20 " /><path d="M5,-20 L4.87464,-20  L4.50484,-20  L3.90916,-20  L3.11745,-20  L2.16942,-20  L1.1126,-20  L2.88658e-15,-20  L-1.1126,-20  L-2.16942,-20  L-3.11745,-20  L-3.90916,-20  L-4.50484,-20  L-4.87464,-20  L-5,-20 " /><path d="M0,-20 L0.559822,-20  L1.1126,-20  L1.6514,-20  L2.16942,-20  L2.66016,-20  L3.11745,-20  L3.53553,-20  L3.90916,-20  L4.23362,-20  L4.50484,-20  L4.71942,-20  L4.87464,-20  L4.96856,-20  L5,-20 " /><path d="M5,-20 L4.87464,-20  L4.50484,-20  L3.90916,-20  L3.11745,-20  L2.16942,-20  L1.1126,-20  L6.66134e-16,-20  L-1.1126,-20  L-2.16942,-20  L-3.11745,-20  L-3.90916,-20  L-4.50484,-20  L-4.87464,-20  L-5,-20 " /><path d="M-5,-20 Q-4.98428,-20 -4.96856,-20  Q-4.9216,-20 -4.87464,-20  Q-4.79703,-20 -4.71942,-20  Q-4.61213,-20 -4.50484,-20  Q-4.36923,-20 -4.23362,-20  Q-4.07139,-20 -3.90916,-20  Q-3.72235,-20 -3.53553,-20  Q-3.32649,-20 -3.11745,-20  Q-2.8888,-20 -2.66016,-20  Q-2.41479,-20 -2.16942,-20  Q-1.91041,-20 -1.6514,-20  Q-1.382,-20 -1.1126,-20  Q-0.561797,-20 -1.11022e-15,-20 " /><path d="M0,-20 L0.559822,-20  L1.1126,-20  L1.6514,-20  L2.16942,-20  L2.66016,-20  L3.11745,-20  L3.53553,-20  L3.90916,-20  L4.23362,-20  L4.50484,-20  L4.71942,-20  L4.87464,-20  L4.96856,-20  L5,-20 " /><path d="M5,-20 L4.87464,-20  L4.50484,-20  L3.90916,-20  L3.11745,-20  L2.16942,-20  L1.1126,-20  L6.66134e-16,-20  L-1.1126,-20  L-2.16942,-20  L-3.11745,-20  L-3.90916,-20  L-4.50484,-20  L-4.87464,-20  L-5,-20 " /><path d="M-5,-20 Q-4.98428,-20 -4.96856,-20  Q-4.9216,-20 -4.87464,-20  Q-4.79703,-20 -4.71942,-20  Q-4.61213,-20 -4.50484,-20  Q-4.36923,-20 -4.23362,-20  Q-4.07139,-20 -3.90916,-20  Q-3.72235,-20 -3.53553,-20  Q-3.32649,-20 -3.11745,-20  Q-2.8888,-20 -2.66016,-20  Q-2.41479,-20 -2.16942,-20  Q-1.91041,-20 -1.6514,-20  Q-1.382,-20 -1.1126,-20  Q-0.561797,-20 -1.11022e-15,-20 " /><path d="M0,-20 L0.559822,-20  L1.1126,-20  L1.6514,-20  L2.16942,-20  L2.66016,-20  L3.11745,-20  L3.53553,-20  L3.90916,-20  L4.23362,-20  L4.50484,-20  L4.71942,-20  L4.87464,-20  L4.96856,-20  L5,-20 " /><path d="M5,-20 L4.87464,-20  L4.50484,-20  L3.90916,-20  L3.11745,-20  L2.16942,-20  L1.1126,-20  L6.66134e-16,-20  L-1.1126,-20  L-2.16942,-20  L-3.11745,-20  L-3.90916,-20  L-4.50484,-20  L-4.87464,-20  L-5,-20 " /><path d="M-5,-20 Q-4.98428,-20 -4.96856,-20  Q-4.9216,-20 -4.87464,-20  Q-4.79703,-20 -4.71942,-20  Q-4.61213,-20 -4.50484,-20  Q-4.36923,-20 -4.23362,-20  Q-4.07139,-20 -3.90916,-20  Q-3.72235,-20 -3.53553,-20  Q-3.32649,-20 -3.11745,-20  Q-2.8888,-20 -2.66016,-20  Q-2.41479,-20 -2.16942,-20  Q-1.91041,-20 -1.6514,-20  Q-1.382,-20 -1.1126,-20  Q-0.561797,-20 -1.11022e-15,-20 " /><path d="M5,-20 L4.87464,-20  L4.50484,-20  L3.90916,-20  L3.11745,-20  L2.16942,-20  L1.1126,-20  L-1.55431e-15,-20  L-1.1126,-20  L-2.16942,-20  L-3.11745,-20  L-3.90916,-20  L-4.50484,-20  L-4.87464,-20  L-5,-20 " /><path d="M-5,-20 Q-4.98428,-20 -4.96856,-20  Q-4.9216,-20 -4.87464,-20  Q-4.79703,-20 -4.71942,-20  Q-4.61213,-20 -4.50484,-20  Q-4.36923,-20 -4.23362,-20  Q-4.07139,-20 -3.90916,-20  Q-3.72235,-20 -3.53553,-20  Q-3.32649,-20 -3.11745,-20  Q-2.8888,-20 -2.66016,-20  Q-2.41479,-20 -2.16942,-20  Q-1.91041,-20 -1.6514,-20  Q-1.382,-20 -1.1126,-20  Q-0.561797,-20 -1.11022e-15,-20 " /><path d="M0,-20 L0.559822,-20  L1.1126,-20  L1.6514,-20  L2.16942,-20  L2.66016,-20  L3.11745,-20  L3.53553,-20  L3.90916,-20  L4.23362,-20  L4.50484,-20  L4.71942,-20  L4.87464,-20  L4.96856,-20  L5,-20 " /><path d="M40 -5 A5 5 0 0 1 35 -1.24345e-14" /><path d="M35,-1.06581e-14 L34.1225,-1.06581e-14  L31.5339,-1.06581e-14  L27.3641,-1.06581e-14  L21.8221,-7.10543e-15  L15.1859,-7.10543e-15  L7.78823,-3.55271e-15  L-7.10543e-15,-3.55271e-15  L-7.78823,-3.55271e-15  L-15.1859,0  L-21.8221,0  L-27.3641,3.55271e-15  L-31.5339,3.55271e-15  L-34.1225,3.55271e-15  L-35,3.55271e-15 " /><path d="M-40 -5 A5 5 0 0 0 -35 7.10543e-15" /><path d="M-5,0 Q-4.98428,0 -4.96856,0  Q-4.9216,0 -4.87464,0  Q-4.79703,0 -4.71942,0  Q-4.61213,0 -4.50484,0  Q-4.36923,0 -4.23362,0  Q-4.07139,0 -3.90916,0  Q-3.72235,0 -3.53553,0  Q-3.32649,0 -3.11745,0  Q-2.8888,0 -2.66016,0  Q-2.41479,0 -2.16942,0  Q-1.91041,0 -1.6514,0  Q-1.382,0 -1.1126,0  Q-0.561797,0 -1.22125e-15,0 " /><path d="M5,0 L4.87464,0  L4.50484,0  L3.90916,0  L3.11745,0  L2.16942,0  L1.1126,0  L2.88658e-15,0  L-1.1126,0  L-2.16942,0  L-3.11745,0  L-3.90916,0  L-4.50484,0  L-4.87464,0  L-5,0 " /><path d="M0,0 L0.559822,0  L1.1126,0  L1.6514,0  L2.16942,0  L2.66016,0  L3.11745,0  L3.53553,0  L3.90916,0  L4.23362,0  L4.50484,0  L4.71942,0  L4.87464,0  L4.96856,0  L5,0 " /><path d="M0,0 L0.559822,0  L1.1126,0  L1.6514,0  L2.16942,0  L2.66016,0  L3.11745,0  L3.53553,0  L3.90916,0  L4.23362,0  L4.50484,0  L4.71942,0  L4.87464,0  L4.96856,0  L5,0 " /><path d="M5,0 L4.87464,0  L4.50484,0  L3.90916,0  L3.11745,0  L2.16942,0  L1.1126,0  L6.66134e-16,0  L-1.1126,0  L-2.16942,0  L-3.11745,0  L-3.90916,0  L-4.50484,0  L-4.87464,0  L-5,0 " /><path d="M-5,0 Q-4.98428,0 -4.96856,0  Q-4.9216,0 -4.87464,0  Q-4.79703,0 -4.71942,0  Q-4.61213,0 -4.50484,0  Q-4.36923,0 -4.23362,0  Q-4.07139,0 -3.90916,0  Q-3.72235,0 -3.53553,0  Q-3.32649,0 -3.11745,0  Q-2.8888,0 -2.66016,0  Q-2.41479,0 -2.16942,0  Q-1.91041,0 -1.6514,0  Q-1.382,0 -1.1126,0  Q-0.561797,0 -1.11022e-15,0 " /><path d="M0,0 L0.559822,0  L1.1126,0  L1.6514,0  L2.16942,0  L2.66016,0  L3.11745,0  L3.53553,0  L3.90916,0  L4.23362,0  L4.50484,0  L4.71942,0  L4.87464,0  L4.96856,0  L5,0 " /><path d="M5,0 L4.87464,0  L4.50484,0  L3.90916,0  L3.11745,0  L2.16942,0  L1.1126,0  L6.66134e-16,0  L-1.1126,0  L-2.16942,0  L-3.11745,0  L-3.90916,0  L-4.50484,0  L-4.87464,0  L-5,0 " /><path d="M-5,0 Q-4.98428,0 -4.96856,0  Q-4.9216,0 -4.87464,0  Q-4.79703,0 -4.71942,0  Q-4.61213,0 -4.50484,0  Q-4.36923,0 -4.23362,0  Q-4.07139,0 -3.90916,0  Q-3.72235,0 -3.53553,0  Q-3.32649,0 -3.11745,0  Q-2.8888,0 -2.66016,0  Q-2.41479,0 -2.16942,0  Q-1.91041,0 -1.6514,0  Q-1.382,0 -1.1126,0  Q-0.561797,0 -1.11022e-15,0 " /><path d="M0,0 L0.559822,0  L1.1126,0  L1.6514,0  L2.16942,0  L2.66016,0  L3.11745,0  L3.53553,0  L3.90916,0  L4.23362,0  L4.50484,0  L4.71942,0  L4.87464,0  L4.96856,0  L5,0 " /><path d="M5,0 L4.87464,0  L4.50484,0  L3.90916,0  L3.11745,0  L2.16942,0  L1.1126,0  L6.66134e-16,0  L-1.1126,0  L-2.16942,0  L-3.11745,0  L-3.90916,0  L-4.50484,0  L-4.87464,0  L-5,0 " /><path d="M-5,0 Q-4.98428,0 -4.96856,0  Q-4.9216,0 -4.87464,0  Q-4.79703,0 -4.71942,0  Q-4.61213,0 -4.50484,0  Q-4.36923,0 -4.23362,0  Q-4.07139,0 -3.90916,0  Q-3.72235,0 -3.53553,0  Q-3.32649,0 -3.11745,0  Q-2.8888,0 -2.66016,0  Q-2.41479,0 -2.16942,0  Q-1.91041,0 -1.6514,0  Q-1.382,0 -1.1126,0  Q-0.561797,0 -1.11022e-15,0 " /><path d="M5,0 L4.87464,0  L4.50484,0  L3.90916,0  L3.11745,0  L2.16942,0  L1.1126,0  L-1.55431e-15,0  L-1.1126,0  L-2.16942,0  L-3.11745,0  L-3.90916,0  L-4.50484,0  L-4.87464,0  L-5,0 " /><path d="M0,0 L0.559822,0  L1.1126,0  L1.6514,0  L2.16942,0  L2.66016,0  L3.11745,0  L3.53553,0  L3.90916,0  L4.23362,0  L4.50484,0  L4.71942,0  L4.87464,0  L4.96856,0  L5,0 " /><path d="M-5,0 Q-4.98428,0 -4.96856,0  Q-4.9216,0 -4.87464,0  Q-4.79703,0 -4.71942,0  Q-4.61213,0 -4.50484,0  Q-4.36923,0 -4.23362,0  Q-4.07139,0 -3.90916,0  Q-3.72235,0 -3.53553,0  Q-3.32649,0 -3.11745,0  Q-2.8888,0 -2.66016,0  Q-2.41479,0 -2.16942,0  Q-1.91041,0 -1.6514,0  Q-1.382,0 -1.1126,0  Q-0.561797,0 -1.11022e-15,0 " /><path id= "103" d=" M -40 120 L -40 -120 " />
<path d="M-40 -120 A40 40 0 0 1 1.53143e-14 -160" /><path d="M0 -160 A40 40 0 0 1 40 -120" /><path id= "106" d=" M 40 -120 L 40 120 " />
<path d="M40 120 A40 40 0 0 1 -40 120" /><circle cx ="0" cy ="-120" r ="5" /><circle cx ="0" cy ="-40" r ="5" /><circle cx ="0" cy ="40" r ="5" /><circle cx ="0" cy ="120" r ="5" /><path d="M0,0 L3.91876,0  L7.78823,0  L11.5598,0  L15.1859,0  L18.6211,0  L21.8221,0  L24.7487,0  L27.3641,0  L29.6353,0  L31.5339,0  L33.0359,0  L34.1225,0  L34.7799,0  L35,0 " /><path d="M35,0 L34.1225,0  L31.5339,0  L27.3641,0  L21.8221,0  L15.1859,0  L7.78823,0  L4.44089e-15,0  L-7.78823,0  L-15.1859,0  L-21.8221,0  L-27.3641,0  L-31.5339,0  L-34.1225,0  L-35,0 " /><path d="M-35,0 L-34.7799,0  L-34.1225,0  L-33.0359,0  L-31.5339,0  L-29.6353,0  L-27.3641,0  L-24.7487,0  L-21.8221,0  L-18.6211,0  L-15.1859,0  L-11.5598,0  L-7.78823,0  L-3.91876,0  L-8.65974e-15,0 " /><path d="M0,20 L3.91876,20  L7.78823,20  L11.5598,20  L15.1859,20  L18.6211,20  L21.8221,20  L24.7487,20  L27.3641,20  L29.6353,20  L31.5339,20  L33.0359,20  L34.1225,20  L34.7799,20  L35,20 " /><path d="M35,20 L34.1225,20  L31.5339,20  L27.3641,20  L21.8221,20  L15.1859,20  L7.78823,20  L-4.26326e-14,20  L-7.78823,20  L-15.1859,20  L-21.8221,20  L-27.3641,20  L-31.5339,20  L-34.1225,20  L-35,20 " /><path d="M-35,20 L-34.7799,20  L-34.1225,20  L-33.0359,20  L-31.5339,20  L-29.6353,20  L-27.3641,20  L-24.7487,20  L-21.8221,20  L-18.6211,20  L-15.1859,20  L-11.5598,20  L-7.78823,20  L-3.91876,20  L-8.65974e-15,20 " /><path d="M0,0 L0.559822,0  L1.1126,0  L1.6514,0  L2.16942,0  L2.66016,0  L3.11745,0  L3.53553,0  L3.90916,0  L4.23362,0  L4.50484,0  L4.71942,0  L4.87464,0  L4.96856,0  L5,0 " /><path d="M5,0 L4.87464,0  L4.50484,0  L3.90916,0  L3.11745,0  L2.16942,0  L1.1126,0  L6.66134e-16,0  L-1.1126,0  L-2.16942,0  L-3.11745,0  L-3.90916,0  L-4.50484,0  L-4.87464,0  L-5,0 " /><path d="M-5,0 Q-4.98428,0 -4.96856,0  Q-4.9216,0 -4.87464,0  Q-4.79703,0 -4.71942,0  Q-4.61213,0 -4.50484,0  Q-4.36923,0 -4.23362,0  Q-4.07139,0 -3.90916,0  Q-3.72235,0 -3.53553,0  Q-3.32649,0 -3.11745,0  Q-2.8888,0 -2.66016,0  Q-2.41479,0 -2.16942,0  Q-1.91041,0 -1.6514,0  Q-1.382,0 -1.1126,0  Q-0.561797,0 -1.11022e-15,0 " /><path d="M0,20 L0.559822,20  L1.1126,20  L1.6514,20  L2.16942,20  L2.66016,20  L3.11745,20  L3.53553,20  L3.90916,20  L4.23362,20  L4.50484,20  L4.71942,20  L4.87464,20  L4.96856,20  L5,20 " /><path d="M5,20 L4.87464,20  L4.50484,20  L3.90916,20  L3.11745,20  L2.16942,20  L1.1126,20  L6.66134e-16,20  L-1.1126,20  L-2.16942,20  L-3.11745,20  L-3.90916,20  L-4.50484,20  L-4.87464,20  L-5,20 " /><path d="M-5,20 Q-4.98428,20 -4.96856,20  Q-4.9216,20 -4.87464,20  Q-4.79703,20 -4.71942,20  Q-4.61213,20 -4.50484,20  Q-4.36923,20 -4.23362,20  Q-4.07139,20 -3.90916,20  Q-3.72235,20 -3.53553,20  Q-3.32649,20 -3.11745,20  Q-2.8888,20 -2.66016,20  Q-2.41479,20 -2.16942,20  Q-1.91041,20 -1.6514,20  Q-1.382,20 -1.1126,20  Q-0.561797,20 -1.11022e-15,20 " /></g>
<g   fill="none"
   stroke="rgb(0, 0, 0)"
   stroke-dasharray="0.02,0.1)"
   stroke-linecap="butt"
   stroke-linejoin="miter"
   stroke-width="0.300000"
   transform="scale(1,-1)"
  >
<path id= "1" d=" M -5 40 L -5 20 " />
<path id= "2" d=" M 5 -40 L 5 -20 " />
<path id= "3" d=" M 5 -20 L 5 0 " />
<path id= "4" d=" M -5 -20 L -5 0 " />
<path id= "5" d=" M 5 -20 L 5 0 " />
<path id= "6" d=" M -5 -20 L -5 0 " />
<path id= "7" d=" M 5 -20 L 5 0 " />
<path id= "8" d=" M -5 -20 L -5 0 " />
<path id= "9" d=" M 5 -20 L 5 0 " />
<path id= "10" d=" M -5 -20 L -5 0 " />
<path id= "11" d=" M 5 -20 L 5 0 " />
<path id= "12" d=" M -5 -20 L -5 0 " />
<path id= "13" d=" M 40 5 L 40 15 " />
<path id= "14" d=" M -40 5 L -40 15 " />
<path d="M40,5 C40.0031,3.86026 39.5995,2.72515 38.8775,1.84324  C38.6367,1.54768 38.3657,1.28301 38.0645,1.04922  C37.1968,0.372699 36.1003,-0.00269337 35,5.55112e-17 " /><path d="M-40,5 C-40.0031,3.86026 -39.5995,2.72515 -38.8775,1.84324  C-38.6367,1.54768 -38.3657,1.28301 -38.0645,1.04922  C-37.1968,0.372699 -36.1003,-0.00269337 -35,0 " /><path d="M40,15 C40.0006,15.7593 39.8248,16.5181 39.4901,17.1997  C39.1681,17.8583 38.6987,18.4442 38.1262,18.9022  C37.2488,19.6089 36.1266,20.003 35,20 " /><path d="M-40,15 C-40.0006,15.7593 -39.8248,16.5181 -39.4901,17.1997  C-39.1681,17.8583 -38.6987,18.4442 -38.1262,18.9022  C-37.2488,19.6089 -36.1266,20.003 -35,20 " /><path id= "19" d=" M 5 0 L 5 20 " />
<path id= "20" d=" M -5 0 L -5 20 " />
</g>
<g   fill="none"
   stroke="rgb(0, 0, 0)"
   stroke-linecap="butt"
   stroke-linejoin="miter"
   stroke-width="0.700000"
   transform="scale(1,-1)"
  >
<path id= "1" d=" M -40 120 L -40 140 " />
<path id= "2" d=" M 40 120 L 40 140 " />
<path id= "3" d=" M -40 140 L -34.641 140 " />
<path id= "4" d=" M 34.641 140 L 40 140 " />
<path id= "5" d=" M 40 -120 L 40 -140 " />
<path id= "6" d=" M -40 -120 L -40 -140 " />
<path id= "7" d=" M 40 -140 L 34.641 -140 " />
<path id= "8" d=" M -34.641 -140 L -40 -140 " />
<path id= "9" d=" M -40 120 L -40 -120 " />
<path d="M-40 -120 A40 40 0 0 1 1.53143e-14 -160" /><path d="M0 -160 A40 40 0 0 1 40 -120" /><path id= "12" d=" M 40 -120 L 40 120 " />
<path d="M40 120 A40 40 0 0 1 -40 120" /><circle cx ="0" cy ="-120" r ="5" /><circle cx ="0" cy ="-40" r ="5" /><circle cx ="0" cy ="40" r ="5" /><circle cx ="0" cy ="120" r ="5" /></g>
</g>



<g id="Ortho_1_-1"
   transform="rotate(60,11.8277,11.0171) translate(11.8277,11.0171) scale(0.5,0.5)"
  >
<g   fill="none"
   stroke="rgb(0, 0, 0)"
   stroke-dasharray="0.2,0.1)"
   stroke-linecap="butt"
   stroke-linejoin="miter"
   stroke-width="0.300000"
   transform="scale(1,-1)"
  >
<path id= "1" d=" M 678.823 342.929 L 735.391 375.588 " />
<path id= "2" d=" M 735.391 375.588 L 735.391 280.411 " />
<path id= "3" d=" M 678.823 326.599 L 721.249 269.444 " />
<path id= "4" d=" M 678.823 342.929 L 678.823 326.599 " />
<path id= "5" d=" M 678.823 342.929 L 622.254 375.588 " />
<path id= "6" d=" M 735.391 375.588 L 680.894 407.053 " />
<path d="M675.287 377.63 A5 2.88675 0 0 0 683.823 375.588" />
<path d="M683.823 375.588 A5 2.88675 0 0 0 673.823 375.588" />
<path d="M673.823 375.588 A5 2.88675 0 0 0 675.287 377.63" />
<path id= "10" d=" M 732.965 279.01 L 685.418 306.461 " />
<path d="M703.571 312.31 A5 2.88675 -60 0 1 709.607 305.939" />
<path d="M709.607 305.939 A5 2.88675 -60 0 1 704.607 314.599" />
<path d="M704.607 314.599 A5 2.88675 -60 0 1 703.571 312.31" />
<path id= "14" d=" M 678.823 326.599 L 664.68 334.764 " />
<path id= "15" d=" M 664.68 334.764 L 707.107 277.609 " />
<path id= "16" d=" M 664.68 334.764 L 636.396 351.094 " />
<path id= "17" d=" M 636.396 351.094 L 622.254 359.258 " />
<path d="M675.287 361.3 A5 2.88675 0 0 0 683.823 359.258" />
<path d="M683.823 359.258 A5 2.88675 0 0 0 673.823 359.258" />
<path d="M673.823 359.258 A5 2.88675 0 0 0 675.287 361.3" />
<path d="M689.429 304.145 A5 2.88675 -60 0 1 695.465 297.774" />
<path d="M695.465 297.774 A5 2.88675 -60 0 1 690.465 306.434" />
<path d="M690.465 306.434 A5 2.88675 -60 0 1 689.429 304.145" />
<path id= "24" d=" M 636.396 351.094 L 678.823 293.939 " />
<path id= "25" d=" M 707.107 359.258 L 707.107 277.609 " />
<path id= "26" d=" M 707.107 359.258 L 678.823 375.588 " />
<path id= "27" d=" M 678.823 375.588 L 678.823 293.939 " />
<path id= "28" d=" M 664.68 334.764 L 707.107 359.258 " />
<path id= "29" d=" M 636.396 351.094 L 678.823 375.588 " />
<path id= "30" d=" M 624.325 407.053 L 678.823 375.588 " />
<path id= "31" d=" M 678.823 375.588 L 735.391 408.248 " />
<path id= "32" d=" M 680.894 439.712 L 735.391 408.248 " />
<path d="M682.358 406.207 A5 2.88675 180 0 1 683.823 408.248" />
<path d="M683.823 408.248 A5 2.88675 180 0 1 673.823 408.248" />
<path d="M673.823 408.248 A5 2.88675 180 0 1 682.358 406.207" />
<path id= "36" d=" M 735.391 408.248 L 735.391 506.228 " />
<path id= "37" d=" M 683.95 535.927 L 735.391 506.228 " />
<path d="M710.642 504.187 A5 2.88675 -60 0 1 704.607 510.558" />
<path d="M704.607 510.558 A5 2.88675 -60 0 1 709.607 501.898" />
<path d="M709.607 501.898 A5 2.88675 -60 0 1 710.642 504.187" />
<path id= "41" d=" M 664.68 530.723 L 678.823 522.558 " />
<path id= "42" d=" M 721.249 498.063 L 735.391 506.228 " />
<path id= "43" d=" M 707.107 506.228 L 721.249 498.063 " />
<path id= "44" d=" M 678.823 522.558 L 707.107 506.228 " />
<path id= "45" d=" M 622.254 424.578 L 636.396 416.413 " />
<path id= "46" d=" M 636.396 416.413 L 678.823 522.558 " />
<path id= "47" d=" M 636.396 416.413 L 664.68 400.083 " />
<path id= "48" d=" M 664.68 400.083 L 678.823 391.918 " />
<path id= "49" d=" M 678.823 375.588 L 678.823 391.918 " />
<path id= "50" d=" M 678.823 391.918 L 721.249 498.063 " />
<path d="M682.358 422.537 A5 2.88675 180 0 1 683.823 424.578" />
<path d="M683.823 424.578 A5 2.88675 180 0 1 673.823 424.578" />
<path d="M673.823 424.578 A5 2.88675 180 0 1 682.358 422.537" />
<path d="M696.5 496.022 A5 2.88675 -60 0 1 690.465 502.393" />
<path d="M690.465 502.393 A5 2.88675 -60 0 1 695.465 493.733" />
<path d="M695.465 493.733 A5 2.88675 -60 0 1 696.5 496.022" />
<path id= "57" d=" M 664.68 400.083 L 707.107 506.228 " />
<path id= "58" d=" M 678.823 440.908 L 678.823 522.558 " />
<path id= "59" d=" M 678.823 440.908 L 707.107 424.578 " />
<path id= "60" d=" M 707.107 424.578 L 707.107 506.228 " />
<path id= "61" d=" M 636.396 416.413 L 678.823 440.908 " />
<path id= "62" d=" M 664.68 400.083 L 707.107 424.578 " />
<path id= "63" d=" M 707.107 387.836 L 707.107 379.671 " />
<path id= "64" d=" M 480.833 257.196 L 480.833 249.031 " />
<path d="M456.084 275.568 A5 2.88675 180 0 1 457.548 277.609" />
<path d="M457.548 277.609 A5 2.88675 180 0 1 456.084 279.65" />
<path d="M456.084 279.65 A5 2.88675 180 0 1 449.013 279.65" />
<path d="M449.013 279.65 A5 2.88675 180 0 1 447.548 277.609" />
<path d="M447.548 277.609 A5 2.88675 180 0 1 456.084 275.568" />
<path d="M625.79 377.63 A5 2.88675 180 0 1 617.254 375.588" />
<path d="M617.254 375.588 A5 2.88675 180 0 1 627.254 375.588" />
<path d="M627.254 375.588 A5 2.88675 180 0 1 625.79 377.63" />
<path d="M569.221 344.97 A5 2.88675 180 0 1 560.685 342.929" />
<path d="M560.685 342.929 A5 2.88675 180 0 1 570.685 342.929" />
<path d="M570.685 342.929 A5 2.88675 180 0 1 569.221 344.97" />
<path d="M512.652 312.31 A5 2.88675 180 0 1 504.117 310.269" />
<path d="M504.117 310.269 A5 2.88675 180 0 1 514.117 310.269" />
<path d="M514.117 310.269 A5 2.88675 180 0 1 512.652 312.31" />
<path d="M675.287 410.29 A5 2.88675 180 0 1 673.823 408.248" />
<path d="M673.823 408.248 A5 2.88675 180 0 1 682.358 406.207" />
<path d="M682.358 406.207 A5 2.88675 180 0 1 683.823 408.248" />
<path d="M683.823 408.248 A5 2.88675 180 0 1 682.358 410.29" />
<path d="M682.358 410.29 A5 2.88675 180 0 1 675.287 410.29" />
<path d="M625.79 361.3 A5 2.88675 180 0 1 622.254 362.145" />
<path d="M624.224 356.605 A5 2.88675 180 0 1 627.254 359.258" />
<path d="M627.254 359.258 A5 2.88675 180 0 1 625.79 361.3" />
<path d="M675.287 393.96 A5 2.88675 180 0 1 673.823 391.918" />
<path d="M673.823 391.918 A5 2.88675 180 0 1 682.358 389.877" />
<path d="M682.358 393.96 A5 2.88675 180 0 1 675.287 393.96" />
<path d="M682.358 389.877 A5 2.88675 180 0 1 683.823 391.918" />
<path d="M683.823 391.918 A5 2.88675 180 0 1 682.358 393.96" />
<path id= "92" d=" M 738.927 491.939 L 745.998 496.022 " />
<path id= "93" d=" M 738.927 295.98 L 745.998 300.062 " />
<path d="M707.107 510.31 A5 2.88675 -60 0 1 704.607 510.558" />
<path d="M704.607 510.558 A5 2.88675 -60 0 1 709.607 501.898" />
<path d="M709.607 501.898 A5 2.88675 -60 0 1 707.107 510.31" />
<path d="M707.107 444.991 A5 2.88675 -60 0 1 704.607 445.238" />
<path d="M704.607 445.238 A5 2.88675 -60 0 1 709.607 436.578" />
<path d="M709.607 436.578 A5 2.88675 -60 0 1 707.107 444.991" />
<path d="M707.107 379.671 A5 2.88675 -60 0 1 704.607 379.919" />
<path d="M704.607 379.919 A5 2.88675 -60 0 1 709.607 371.258" />
<path d="M709.607 371.258 A5 2.88675 -60 0 1 707.107 379.671" />
<path d="M707.107 314.351 A5 2.88675 -60 0 1 704.607 314.599" />
<path d="M704.607 314.599 A5 2.88675 -60 0 1 709.607 305.939" />
<path d="M709.607 305.939 A5 2.88675 -60 0 1 707.107 314.351" />
<path d="M682.358 393.96 A5 2.88675 180 0 1 673.823 391.918" />
<path d="M673.823 391.918 A5 2.88675 180 0 1 683.823 391.918" />
<path d="M683.823 391.918 A5 2.88675 180 0 1 682.358 393.96" />
<path d="M682.358 377.63 A5 2.88675 180 0 1 673.823 375.588" />
<path d="M673.823 375.588 A5 2.88675 180 0 1 683.823 375.588" />
<path d="M683.823 375.588 A5 2.88675 180 0 1 682.358 377.63" />
</g>
<g   fill="none"
   stroke="rgb(0, 0, 0)"
   stroke-dasharray="0.02,0.1)"
   stroke-linecap="butt"
   stroke-linejoin="miter"
   stroke-width="0.300000"
   transform="scale(1,-1)"
  >
<path id= "1" d=" M 683.823 359.258 L 683.823 375.588 " />
<path id= "2" d=" M 673.823 359.258 L 673.823 375.588 " />
<path id= "3" d=" M 695.465 297.774 L 709.607 305.939 " />
<path id= "4" d=" M 690.465 306.434 L 704.607 314.599 " />
<path id= "5" d=" M 673.823 424.578 L 673.823 408.248 " />
<path id= "6" d=" M 683.823 424.578 L 683.823 408.248 " />
<path id= "7" d=" M 695.465 493.733 L 709.607 501.898 " />
<path id= "8" d=" M 690.465 502.393 L 704.607 510.558 " />
<path id= "9" d=" M 718.823 404.166 L 718.823 396.001 " />
<path id= "10" d=" M 637.982 338.071 L 706.071 377.382 " />
<path d="M718.823,404.166 C718.826,407.137 718.014,410.09 716.517,412.774  C714.312,416.738 710.67,420.131 706.071,422.785 " /><path d="M706.071,377.382 C710.649,380.024 714.279,383.399 716.487,387.34  C718.003,390.038 718.826,393.01 718.823,396.001 " /><path d="M706.071,422.785 C703.035,424.538 699.575,425.974 695.842,427.049  C691.164,428.399 686.058,429.178 680.894,429.34 " /><path id= "14" d=" M 447.548 277.609 L 447.548 261.279 " />
<path id= "15" d=" M 457.548 277.609 L 457.548 261.279 " />
<path id= "16" d=" M 617.254 375.588 L 617.254 359.258 " />
<path id= "17" d=" M 627.254 375.588 L 627.254 359.258 " />
<path id= "18" d=" M 560.685 342.929 L 560.685 326.599 " />
<path id= "19" d=" M 570.685 342.929 L 570.685 326.599 " />
<path id= "20" d=" M 504.117 310.269 L 504.117 293.939 " />
<path id= "21" d=" M 514.117 310.269 L 514.117 293.939 " />
<path id= "22" d=" M 673.823 408.248 L 673.823 391.918 " />
<path id= "23" d=" M 683.823 408.248 L 683.823 391.918 " />
<path id= "24" d=" M 709.607 501.898 L 723.749 510.063 " />
<path id= "25" d=" M 704.607 510.558 L 718.749 518.723 " />
<path id= "26" d=" M 709.607 436.578 L 723.749 444.743 " />
<path id= "27" d=" M 704.607 445.238 L 718.749 453.403 " />
<path id= "28" d=" M 709.607 371.258 L 723.749 379.423 " />
<path id= "29" d=" M 704.607 379.919 L 718.749 388.084 " />
<path id= "30" d=" M 709.607 305.939 L 723.749 314.104 " />
<path id= "31" d=" M 704.607 314.599 L 718.749 322.764 " />
<path id= "32" d=" M 638.823 385.154 L 638.823 379.671 " />
<path id= "33" d=" M 718.823 387.836 L 718.823 379.671 " />
<path d="M706.071,406.455 C701.613,409.031 696.23,410.919 690.43,411.993  C687.335,412.566 684.124,412.908 680.894,413.01 " /><path d="M718.823,387.836 C718.826,390.807 718.014,393.76 716.517,396.444  C714.312,400.408 710.67,403.801 706.071,406.455 " /><path d="M638.823,379.671 C638.819,376.699 639.631,373.746 641.128,371.063  C641.697,370.044 642.356,369.062 643.108,368.12  C645.244,365.435 648.083,363.086 651.442,361.129  C655.839,358.564 661.148,356.672 666.877,355.578  C671.644,354.665 676.697,354.307 681.682,354.526  C686.666,354.743 691.582,355.536 696.088,356.859  C699.853,357.964 703.335,359.435 706.378,361.231  C710.825,363.853 714.351,367.178 716.507,371.046  C718.01,373.734 718.826,376.693 718.823,379.671 " /><path id= "37" d=" M 673.823 391.918 L 673.823 375.588 " />
<path id= "38" d=" M 683.823 391.918 L 683.823 375.588 " />
</g>
<g   fill="none"
   stroke="rgb(0, 0, 0)"
   stroke-linecap="butt"
   stroke-linejoin="miter"
   stroke-width="0.700000"
   transform="scale(1,-1)"
  >
<path id= "1" d=" M 479.797 246.743 L 637.982 338.071 " />
<path id= "2" d=" M 412.548 273.526 L 412.548 265.361 " />
<path d="M680.894,429.34 C676.161,429.491 671.386,429.123 666.866,428.257  C661.198,427.173 655.942,425.309 651.574,422.785 " /><path d="M425.3,292.145 C420.686,289.483 417.036,286.076 414.833,282.095  C413.349,279.423 412.545,276.484 412.548,273.526 " /><path d="M412.548,265.361 C412.544,262.39 413.357,259.437 414.854,256.754  C415.832,254.995 417.097,253.344 418.601,251.824  C420.451,249.953 422.665,248.278 425.168,246.819  C428.268,245.012 431.815,243.539 435.648,242.444  C440.873,240.948 446.632,240.165 452.401,240.154  C456.537,240.144 460.675,240.529 464.616,241.292  C470.242,242.379 475.457,244.235 479.797,246.743 " /><path id= "6" d=" M 651.574 422.785 L 425.3 292.145 " />
<path id= "7" d=" M 690.642 542.91 L 697.713 546.993 " />
<path id= "8" d=" M 747.462 302.104 L 747.462 498.063 " />
<path id= "9" d=" M 730.642 277.669 L 737.713 281.751 " />
<path d="M747.462,498.063 C747.462,501.569 746.976,505.283 746.041,509.055  C744.714,514.416 742.472,519.89 739.535,524.969  C736.617,530.025 733.019,534.678 729.062,538.494  C726.252,541.206 723.264,543.498 720.213,545.259 " /><path d="M690.642,542.91 C688.067,541.428 685.916,539.247 684.341,536.609  C682.01,532.718 680.892,527.867 680.894,522.558 " /><path d="M720.213,545.259 C715.636,547.903 710.899,549.359 706.381,549.3  C703.287,549.264 700.302,548.492 697.713,546.993 " /><path d="M680.894,326.599 C680.892,321.649 681.867,316.278 683.694,310.93  C685,307.101 686.74,303.29 688.829,299.678  C690.887,296.116 693.281,292.751 695.902,289.742  C699.731,285.344 704.035,281.716 708.463,279.22  C710.895,277.847 713.366,276.811 715.826,276.159  C717.912,275.606 719.992,275.331 722.021,275.362  C725.098,275.405 728.067,276.178 730.642,277.669 " /><path d="M737.713,281.751 C740.289,283.234 742.44,285.414 744.015,288.052  C746.346,291.944 747.463,296.794 747.462,302.104 " /><path id= "15" d=" M 680.894 522.558 L 680.894 326.599 " />
<path id= "16" d=" M 638.823 387.836 L 638.823 385.154 " />
<path d="M680.894,413.01 C674.281,413.223 667.589,412.414 661.616,410.665  C654.85,408.689 649.015,405.532 644.941,401.44  C643.416,399.909 642.134,398.245 641.144,396.471  C639.637,393.78 638.819,390.817 638.823,387.836 " /></g>
<g   fill="none"
   stroke="rgb(0, 0, 0)"
   stroke-linecap="butt"
   stroke-linejoin="miter"
   stroke-width="0.700000"
   transform="scale(1,-1)"
  >
<path id= "1" d=" M 735.391 280.411 L 735.391 277.609 " />
<path id= "2" d=" M 721.249 269.444 L 735.391 277.609 " />
<path id= "3" d=" M 622.254 375.588 L 678.823 408.248 " />
<path id= "4" d=" M 680.894 407.053 L 678.823 408.248 " />
<path id= "5" d=" M 678.823 408.248 L 678.823 310.269 " />
<path id= "6" d=" M 735.391 277.609 L 732.965 279.01 " />
<path id= "7" d=" M 685.418 306.461 L 678.823 310.269 " />
<path id= "8" d=" M 721.249 269.444 L 707.107 277.609 " />
<path id= "9" d=" M 664.68 302.104 L 678.823 310.269 " />
<path id= "10" d=" M 678.823 293.939 L 664.68 302.104 " />
<path id= "11" d=" M 707.107 277.609 L 678.823 293.939 " />
<path id= "12" d=" M 622.254 375.588 L 622.254 359.258 " />
<path id= "13" d=" M 622.254 359.258 L 664.68 302.104 " />
<path id= "14" d=" M 622.254 408.248 L 678.823 440.908 " />
<path id= "15" d=" M 678.823 440.908 L 678.823 538.888 " />
<path id= "16" d=" M 664.68 530.723 L 678.823 538.888 " />
<path id= "17" d=" M 622.254 424.578 L 664.68 530.723 " />
<path id= "18" d=" M 622.254 408.248 L 622.254 424.578 " />
<path id= "19" d=" M 622.254 408.248 L 624.325 407.053 " />
<path id= "20" d=" M 678.823 440.908 L 680.894 439.712 " />
<path id= "21" d=" M 678.823 538.888 L 683.95 535.927 " />
<path id= "22" d=" M 650.538 420.496 L 650.538 412.331 " />
<path id= "23" d=" M 424.264 289.856 L 424.264 281.691 " />
<path d="M456.084 259.238 A5 2.88675 180 0 1 457.548 261.279" />
<path d="M457.548 261.279 A5 2.88675 180 0 1 456.084 263.32" />
<path d="M449.013 263.32 A5 2.88675 180 0 1 447.548 261.279" />
<path d="M447.548 261.279 A5 2.88675 180 0 1 456.084 259.238" />
<path d="M456.084 263.32 A5 2.88675 180 0 1 449.013 263.32" />
<path d="M622.254 362.145 A5 2.88675 180 0 1 617.254 359.258" />
<path d="M617.254 359.258 A5 2.88675 180 0 1 624.224 356.605" />
<path d="M569.221 328.64 A5 2.88675 180 0 1 560.685 326.599" />
<path d="M560.685 326.599 A5 2.88675 180 0 1 570.685 326.599" />
<path d="M570.685 326.599 A5 2.88675 180 0 1 569.221 328.64" />
<path d="M512.652 295.98 A5 2.88675 180 0 1 504.117 293.939" />
<path d="M504.117 293.939 A5 2.88675 180 0 1 514.117 293.939" />
<path d="M514.117 293.939 A5 2.88675 180 0 1 512.652 295.98" />
<path id= "37" d=" M 682.358 524.599 L 689.429 528.682 " />
<path id= "38" d=" M 682.358 328.64 L 689.429 332.722 " />
<path d="M721.249 518.475 A5 2.88675 -60 0 1 718.749 518.723" />
<path d="M718.749 518.723 A5 2.88675 -60 0 1 723.749 510.063" />
<path d="M723.749 510.063 A5 2.88675 -60 0 1 721.249 518.475" />
<path d="M721.249 453.156 A5 2.88675 -60 0 1 718.749 453.403" />
<path d="M718.749 453.403 A5 2.88675 -60 0 1 723.749 444.743" />
<path d="M723.749 444.743 A5 2.88675 -60 0 1 721.249 453.156" />
<path d="M721.249 387.836 A5 2.88675 -60 0 1 718.749 388.084" />
<path d="M718.749 388.084 A5 2.88675 -60 0 1 723.749 379.423" />
<path d="M723.749 379.423 A5 2.88675 -60 0 1 721.249 387.836" />
<path d="M721.249 322.516 A5 2.88675 -60 0 1 718.749 322.764" />
<path d="M718.749 322.764 A5 2.88675 -60 0 1 723.749 314.104" />
<path d="M723.749 314.104 A5 2.88675 -60 0 1 721.249 322.516" />
</g>
</g>



<g id="Ortho_1_0"
   transform="rotate(90,-106.764,35.7153) translate(-106.764,35.7153) scale(0.5,0.5)"
  >
<g   fill="none"
   stroke="rgb(0, 0, 0)"
   stroke-dasharray="0.2,0.1)"
   stroke-linecap="butt"
   stroke-linejoin="miter"
   stroke-width="0.300000"
   transform="scale(1,-1)"
  >
<path id= "1" d=" M 40 920 L 40 1000 " />
<path id= "2" d=" M 40 920 L -40 920 " />
<path id= "3" d=" M -40 920 L -40 1000 " />
<path id= "4" d=" M 40 1000 L -40 1000 " />
<circle cx ="0" cy ="960" r ="5" /><path d="M-5,1000 L-4.87464,1000  L-4.50484,1000  L-3.90916,1000  L-3.11745,1000  L-2.16942,1000  L-1.1126,1000  L-2.22045e-16,1000  L1.1126,1000  L2.16942,1000  L3.11745,1000  L3.90916,1000  L4.50484,1000  L4.87464,1000  L5,1000 " /><path d="M5,1000 L4.87464,1000  L4.50484,1000  L3.90916,1000  L3.11745,1000  L2.16942,1000  L1.1126,1000  L8.88178e-16,1000  L-1.1126,1000  L-2.16942,1000  L-3.11745,1000  L-3.90916,1000  L-4.50484,1000  L-4.87464,1000  L-5,1000 " /><path id= "8" d=" M -5 980 L -5 1000 " />
<path d="M-5,980 L-4.87464,980  L-4.50484,980  L-3.90916,980  L-3.11745,980  L-2.16942,980  L-1.1126,980  L-2.22045e-16,980  L1.1126,980  L2.16942,980  L3.11745,980  L3.90916,980  L4.50484,980  L4.87464,980  L5,980 " /><path d="M5,980 L4.87464,980  L4.50484,980  L3.90916,980  L3.11745,980  L2.16942,980  L1.1126,980  L8.88178e-16,980  L-1.1126,980  L-2.16942,980  L-3.11745,980  L-3.90916,980  L-4.50484,980  L-4.87464,980  L-5,980 " /><path id= "11" d=" M 20 980 L -20 980 " />
<path id= "12" d=" M 20 920 L 20 980 " />
<path id= "13" d=" M -20 920 L -20 980 " />
<path id= "14" d=" M -40 920 L -40 1000 " />
<path id= "15" d=" M -40 980 L -40 1000 " />
<path id= "16" d=" M -40 920 L -40 980 " />
<path id= "17" d=" M -40 920 L 40 920 " />
<path id= "18" d=" M 40 920 L 40 1000 " />
<path id= "19" d=" M -40 1000 L 40 1000 " />
<circle cx ="0" cy ="960" r ="5" /><path id= "21" d=" M -40 1000 L 40 1000 " />
<path d="M5,1000 L4.87464,1000  L4.50484,1000  L3.90916,1000  L3.11745,1000  L2.16942,1000  L1.1126,1000  L2.22045e-16,1000  L-1.1126,1000  L-2.16942,1000  L-3.11745,1000  L-3.90916,1000  L-4.50484,1000  L-4.87464,1000  L-5,1000 " /><path d="M-5,1000 L-4.87464,1000  L-4.50484,1000  L-3.90916,1000  L-3.11745,1000  L-2.16942,1000  L-1.1126,1000  L-8.88178e-16,1000  L1.1126,1000  L2.16942,1000  L3.11745,1000  L3.90916,1000  L4.50484,1000  L4.87464,1000  L5,1000 " /><path id= "24" d=" M -40 980 L -20 980 " />
<path id= "25" d=" M 40 980 L 40 1000 " />
<path id= "26" d=" M 20 980 L 40 980 " />
<path id= "27" d=" M -20 980 L 20 980 " />
<path id= "28" d=" M -40 920 L -20 920 " />
<path id= "29" d=" M -20 920 L -20 980 " />
<path id= "30" d=" M -20 920 L 20 920 " />
<path id= "31" d=" M 20 920 L 40 920 " />
<path id= "32" d=" M 40 920 L 40 980 " />
<circle cx ="0" cy ="960" r ="5" /><path id= "34" d=" M 5 980 L 5 1000 " />
<path d="M5,980 L4.87464,980  L4.50484,980  L3.90916,980  L3.11745,980  L2.16942,980  L1.1126,980  L2.22045e-16,980  L-1.1126,980  L-2.16942,980  L-3.11745,980  L-3.90916,980  L-4.50484,980  L-4.87464,980  L-5,980 " /><path d="M-5,980 L-4.87464,980  L-4.50484,980  L-3.90916,980  L-3.11745,980  L-2.16942,980  L-1.1126,980  L-8.88178e-16,980  L1.1126,980  L2.16942,980  L3.11745,980  L3.90916,980  L4.50484,980  L4.87464,980  L5,980 " /><path id= "37" d=" M 20 920 L 20 980 " />
<path id= "38" d=" M -20 980 L 20 980 " />
<path id= "39" d=" M -20 920 L -20 980 " />
<path id= "40" d=" M 20 920 L 20 980 " />
<path id= "41" d=" M 40 920 L 40 960 " />
<path id= "42" d=" M 40 920 L 40 960 " />
<path d="M40 960 A40 40 0 0 1 -1.64243e-14 1000" /><path d="M40 960 A40 40 0 0 1 -1.86443e-14 1000" /><path d="M-1.11e-15 1000 A40 40 0 0 1 -40 960" /><path d="M-3.33e-15 1000 A40 40 0 0 1 -40 960" /><path id= "47" d=" M -40 960 L -40 640 " />
<path id= "48" d=" M -40 960 L -40 920 " />
<path d="M5 640 A5 5 0 0 1 1.22465e-15 645" /><path d="M0 645 A5 5 0 0 1 -5 640" /><path d="M-5 640 A5 5 0 1 1 5 640" /><circle cx ="0" cy ="880" r ="5" /><circle cx ="0" cy ="800" r ="5" /><circle cx ="0" cy ="720" r ="5" /><path d="M-5 960 A5 5 0 0 1 5 960" /><path d="M5 960 A5 5 0 0 1 1.22465e-15 965" /><path d="M0 965 A5 5 0 0 1 -5 960" /><path d="M-5 960 A5 5 0 0 1 5 960" /><path d="M0 965 A5 5 0 0 1 -5 960" /><path d="M5 960 A5 5 0 0 1 1.22465e-15 965" /><path id= "61" d=" M 40 1005 L 40 1015 " />
<path id= "62" d=" M -40 1005 L -40 1015 " />
<path d="M40 1005 A5 5 0 0 0 35 1000" /><path d="M35,1000 L34.7799,1000  L34.1225,1000  L33.0359,1000  L31.5339,1000  L29.6353,1000  L27.3641,1000  L24.7487,1000  L21.8221,1000  L18.6211,1000  L15.1859,1000  L11.5598,1000  L7.78823,1000  L3.91876,1000  L-1.33227e-14,1000 " /><path d="M40 1015 A5 5 0 0 1 35 1020" /><path d="M35,1020 L34.7799,1020  L34.1225,1020  L33.0359,1020  L31.5339,1020  L29.6353,1020  L27.3641,1020  L24.7487,1020  L21.8221,1020  L18.6211,1020  L15.1859,1020  L11.5598,1020  L7.78823,1020  L3.91876,1020  L-1.33227e-14,1020 " /><path d="M0,1000 L-3.91876,1000  L-7.78823,1000  L-11.5598,1000  L-15.1859,1000  L-18.6211,1000  L-21.8221,1000  L-24.7487,1000  L-27.3641,1000  L-29.6353,1000  L-31.5339,1000  L-33.0359,1000  L-34.1225,1000  L-34.7799,1000  L-35,1000 " /><path d="M-40 1005 A5 5 0 0 1 -35 1000" /><path d="M0,1020 L-3.91876,1020  L-7.78823,1020  L-11.5598,1020  L-15.1859,1020  L-18.6211,1020  L-21.8221,1020  L-24.7487,1020  L-27.3641,1020  L-29.6353,1020  L-31.5339,1020  L-33.0359,1020  L-34.1225,1020  L-34.7799,1020  L-35,1020 " /><path d="M-40 1015 A5 5 0 0 0 -35 1020" /><path d="M0,1000 L-0.559822,1000  L-1.1126,1000  L-1.6514,1000  L-2.16942,1000  L-2.66016,1000  L-3.11745,1000  L-3.53553,1000  L-3.90916,1000  L-4.23362,1000  L-4.50484,1000  L-4.71942,1000  L-4.87464,1000  L-4.96856,1000  L-5,1000 " /><path d="M-5,1000 L-4.87464,1000  L-4.50484,1000  L-3.90916,1000  L-3.11745,1000  L-2.16942,1000  L-1.1126,1000  L-6.66134e-16,1000  L1.1126,1000  L2.16942,1000  L3.11745,1000  L3.90916,1000  L4.50484,1000  L4.87464,1000  L5,1000 " /><path d="M5,1000 Q4.98428,1000 4.96856,1000  Q4.9216,1000 4.87464,1000  Q4.79703,1000 4.71942,1000  Q4.61213,1000 4.50484,1000  Q4.36923,1000 4.23362,1000  Q4.07139,1000 3.90916,1000  Q3.72235,1000 3.53553,1000  Q3.32649,1000 3.11745,1000  Q2.8888,1000 2.66016,1000  Q2.41479,1000 2.16942,1000  Q1.91041,1000 1.6514,1000  Q1.382,1000 1.1126,1000  Q0.561797,1000 1.11022e-15,1000 " /><path d="M0,1000 L-0.559822,1000  L-1.1126,1000  L-1.6514,1000  L-2.16942,1000  L-2.66016,1000  L-3.11745,1000  L-3.53553,1000  L-3.90916,1000  L-4.23362,1000  L-4.50484,1000  L-4.71942,1000  L-4.87464,1000  L-4.96856,1000  L-5,1000 " /><path d="M-5,1000 L-4.87464,1000  L-4.50484,1000  L-3.90916,1000  L-3.11745,1000  L-2.16942,1000  L-1.1126,1000  L-6.66134e-16,1000  L1.1126,1000  L2.16942,1000  L3.11745,1000  L3.90916,1000  L4.50484,1000  L4.87464,1000  L5,1000 " /><path d="M5,1000 Q4.98428,1000 4.96856,1000  Q4.9216,1000 4.87464,1000  Q4.79703,1000 4.71942,1000  Q4.61213,1000 4.50484,1000  Q4.36923,1000 4.23362,1000  Q4.07139,1000 3.90916,1000  Q3.72235,1000 3.53553,1000  Q3.32649,1000 3.11745,1000  Q2.8888,1000 2.66016,1000  Q2.41479,1000 2.16942,1000  Q1.91041,1000 1.6514,1000  Q1.382,1000 1.1126,1000  Q0.561797,1000 1.11022e-15,1000 " /><path d="M0,1000 L-0.559822,1000  L-1.1126,1000  L-1.6514,1000  L-2.16942,1000  L-2.66016,1000  L-3.11745,1000  L-3.53553,1000  L-3.90916,1000  L-4.23362,1000  L-4.50484,1000  L-4.71942,1000  L-4.87464,1000  L-4.96856,1000  L-5,1000 " /><path d="M-5,1000 L-4.87464,1000  L-4.50484,1000  L-3.90916,1000  L-3.11745,1000  L-2.16942,1000  L-1.1126,1000  L-6.66134e-16,1000  L1.1126,1000  L2.16942,1000  L3.11745,1000  L3.90916,1000  L4.50484,1000  L4.87464,1000  L5,1000 " /><path d="M5,1000 Q4.98428,1000 4.96856,1000  Q4.9216,1000 4.87464,1000  Q4.79703,1000 4.71942,1000  Q4.61213,1000 4.50484,1000  Q4.36923,1000 4.23362,1000  Q4.07139,1000 3.90916,1000  Q3.72235,1000 3.53553,1000  Q3.32649,1000 3.11745,1000  Q2.8888,1000 2.66016,1000  Q2.41479,1000 2.16942,1000  Q1.91041,1000 1.6514,1000  Q1.382,1000 1.1126,1000  Q0.561797,1000 1.11022e-15,1000 " /><path d="M0,1000 L-0.559822,1000  L-1.1126,1000  L-1.6514,1000  L-2.16942,1000  L-2.66016,1000  L-3.11745,1000  L-3.53553,1000  L-3.90916,1000  L-4.23362,1000  L-4.50484,1000  L-4.71942,1000  L-4.87464,1000  L-4.96856,1000  L-5,1000 " /><path d="M-5,1000 L-4.87464,1000  L-4.50484,1000  L-3.90916,1000  L-3.11745,1000  L-2.16942,1000  L-1.1126,1000  L-6.66134e-16,1000  L1.1126,1000  L2.16942,1000  L3.11745,1000  L3.90916,1000  L4.50484,1000  L4.87464,1000  L5,1000 " /><path d="M5,1000 Q4.98428,1000 4.96856,1000  Q4.9216,1000 4.87464,1000  Q4.79703,1000 4.71942,1000  Q4.61213,1000 4.50484,1000  Q4.36923,1000 4.23362,1000  Q4.07139,1000 3.90916,1000  Q3.72235,1000 3.53553,1000  Q3.32649,1000 3.11745,1000  Q2.8888,1000 2.66016,1000  Q2.41479,1000 2.16942,1000  Q1.91041,1000 1.6514,1000  Q1.382,1000 1.1126,1000  Q0.561797,1000 1.11022e-15,1000 " /><path d="M0,1020 L-0.559822,1020  L-1.1126,1020  L-1.6514,1020  L-2.16942,1020  L-2.66016,1020  L-3.11745,1020  L-3.53553,1020  L-3.90916,1020  L-4.23362,1020  L-4.50484,1020  L-4.71942,1020  L-4.87464,1020  L-4.96856,1020  L-5,1020 " /><path d="M-5,1020 L-4.87464,1020  L-4.50484,1020  L-3.90916,1020  L-3.11745,1020  L-2.16942,1020  L-1.1126,1020  L-6.66134e-16,1020  L1.1126,1020  L2.16942,1020  L3.11745,1020  L3.90916,1020  L4.50484,1020  L4.87464,1020  L5,1020 " /><path d="M5,1020 Q4.98428,1020 4.96856,1020  Q4.9216,1020 4.87464,1020  Q4.79703,1020 4.71942,1020  Q4.61213,1020 4.50484,1020  Q4.36923,1020 4.23362,1020  Q4.07139,1020 3.90916,1020  Q3.72235,1020 3.53553,1020  Q3.32649,1020 3.11745,1020  Q2.8888,1020 2.66016,1020  Q2.41479,1020 2.16942,1020  Q1.91041,1020 1.6514,1020  Q1.382,1020 1.1126,1020  Q0.561797,1020 1.11022e-15,1020 " /><path d="M0,1020 L-0.559822,1020  L-1.1126,1020  L-1.6514,1020  L-2.16942,1020  L-2.66016,1020  L-3.11745,1020  L-3.53553,1020  L-3.90916,1020  L-4.23362,1020  L-4.50484,1020  L-4.71942,1020  L-4.87464,1020  L-4.96856,1020  L-5,1020 " /><path d="M-5,1020 L-4.87464,1020  L-4.50484,1020  L-3.90916,1020  L-3.11745,1020  L-2.16942,1020  L-1.1126,1020  L-6.66134e-16,1020  L1.1126,1020  L2.16942,1020  L3.11745,1020  L3.90916,1020  L4.50484,1020  L4.87464,1020  L5,1020 " /><path d="M5,1020 Q4.98428,1020 4.96856,1020  Q4.9216,1020 4.87464,1020  Q4.79703,1020 4.71942,1020  Q4.61213,1020 4.50484,1020  Q4.36923,1020 4.23362,1020  Q4.07139,1020 3.90916,1020  Q3.72235,1020 3.53553,1020  Q3.32649,1020 3.11745,1020  Q2.8888,1020 2.66016,1020  Q2.41479,1020 2.16942,1020  Q1.91041,1020 1.6514,1020  Q1.382,1020 1.1126,1020  Q0.561797,1020 1.11022e-15,1020 " /><path d="M0,1020 L-0.559822,1020  L-1.1126,1020  L-1.6514,1020  L-2.16942,1020  L-2.66016,1020  L-3.11745,1020  L-3.53553,1020  L-3.90916,1020  L-4.23362,1020  L-4.50484,1020  L-4.71942,1020  L-4.87464,1020  L-4.96856,1020  L-5,1020 " /><path d="M-5,1020 L-4.87464,1020  L-4.50484,1020  L-3.90916,1020  L-3.11745,1020  L-2.16942,1020  L-1.1126,1020  L-6.66134e-16,1020  L1.1126,1020  L2.16942,1020  L3.11745,1020  L3.90916,1020  L4.50484,1020  L4.87464,1020  L5,1020 " /><path d="M5,1020 Q4.98428,1020 4.96856,1020  Q4.9216,1020 4.87464,1020  Q4.79703,1020 4.71942,1020  Q4.61213,1020 4.50484,1020  Q4.36923,1020 4.23362,1020  Q4.07139,1020 3.90916,1020  Q3.72235,1020 3.53553,1020  Q3.32649,1020 3.11745,1020  Q2.8888,1020 2.66016,1020  Q2.41479,1020 2.16942,1020  Q1.91041,1020 1.6514,1020  Q1.382,1020 1.1126,1020  Q0.561797,1020 1.11022e-15,1020 " /><path d="M0,1020 L-0.559822,1020  L-1.1126,1020  L-1.6514,1020  L-2.16942,1020  L-2.66016,1020  L-3.11745,1020  L-3.53553,1020  L-3.90916,1020  L-4.23362,1020  L-4.50484,1020  L-4.71942,1020  L-4.87464,1020  L-4.96856,1020  L-5,1020 " /><path d="M-5,1020 L-4.87464,1020  L-4.50484,1020  L-3.90916,1020  L-3.11745,1020  L-2.16942,1020  L-1.1126,1020  L-6.66134e-16,1020  L1.1126,1020  L2.16942,1020  L3.11745,1020  L3.90916,1020  L4.50484,1020  L4.87464,1020  L5,1020 " /><path d="M5,1020 Q4.98428,1020 4.96856,1020  Q4.9216,1020 4.87464,1020  Q4.79703,1020 4.71942,1020  Q4.61213,1020 4.50484,1020  Q4.36923,1020 4.23362,1020  Q4.07139,1020 3.90916,1020  Q3.72235,1020 3.53553,1020  Q3.32649,1020 3.11745,1020  Q2.8888,1020 2.66016,1020  Q2.41479,1020 2.16942,1020  Q1.91041,1020 1.6514,1020  Q1.382,1020 1.1126,1020  Q0.561797,1020 1.11022e-15,1020 " /><circle cx ="0" cy ="960" r ="40" /><circle cx ="0" cy ="960" r ="40" /><circle cx ="0" cy ="960" r ="5" /><circle cx ="0" cy ="960" r ="5" /></g>
<g   fill="none"
   stroke="rgb(0, 0, 0)"
   stroke-dasharray="0.02,0.1)"
   stroke-linecap="butt"
   stroke-linejoin="miter"
   stroke-width="0.300000"
   transform="scale(1,-1)"
  >
<path id= "1" d=" M 5 980 L 5 1000 " />
<path id= "2" d=" M -5 980 L -5 1000 " />
<path id= "3" d=" M 5 1000 L 5 1020 " />
<path id= "4" d=" M -5 1000 L -5 1020 " />
<path id= "5" d=" M 5 1000 L 5 1020 " />
<path id= "6" d=" M -5 1000 L -5 1020 " />
<path id= "7" d=" M 5 1000 L 5 1020 " />
<path id= "8" d=" M -5 1000 L -5 1020 " />
<path id= "9" d=" M 5 1000 L 5 1020 " />
<path id= "10" d=" M -5 1000 L -5 1020 " />
</g>
<g   fill="none"
   stroke="rgb(0, 0, 0)"
   stroke-linecap="butt"
   stroke-linejoin="miter"
   stroke-width="0.700000"
   transform="scale(1,-1)"
  >
<path id= "1" d=" M 40 980 L 40 1000 " />
<path id= "2" d=" M 40 920 L 40 980 " />
<path id= "3" d=" M 40 1000 L -40 1000 " />
<path id= "4" d=" M 40 980 L 20 980 " />
<path id= "5" d=" M -40 980 L -40 1000 " />
<path id= "6" d=" M -20 980 L -40 980 " />
<path id= "7" d=" M 20 980 L -20 980 " />
<path id= "8" d=" M 40 920 L 20 920 " />
<path id= "9" d=" M 20 920 L 20 980 " />
<path id= "10" d=" M 20 920 L -20 920 " />
<path id= "11" d=" M -20 920 L -40 920 " />
<path id= "12" d=" M -40 920 L -40 980 " />
<circle cx ="0" cy ="960" r ="5" /><path id= "14" d=" M -20 920 L -20 980 " />
<path id= "15" d=" M 40 640 L 40 920 " />
<path id= "16" d=" M 40 640 L 40 920 " />
<path id= "17" d=" M -40 920 L -40 640 " />
<path d="M-40 640 A40 40 0 0 1 40 640" /><path d="M-40 640 A40 40 0 0 1 40 640" /><path d="M5 640 A5 5 0 0 1 1.22465e-15 645" /><path d="M-5 640 A5 5 0 1 1 5 640" /><path d="M0 645 A5 5 0 0 1 -5 640" /><circle cx ="0" cy ="880" r ="5" /><circle cx ="0" cy ="800" r ="5" /><circle cx ="0" cy ="720" r ="5" /><path id= "26" d=" M 40 1005 L 40 1015 " />
<path id= "27" d=" M -40 1005 L -40 1015 " />
<path d="M-40 1005 A5 5 0 0 1 -35 1000" /><path d="M-35,1000 L-34.1225,1000  L-31.5339,1000  L-27.3641,1000  L-21.8221,1000  L-15.1859,1000  L-7.78823,1000  L1.15463e-14,1000  L7.78823,1000  L15.1859,1000  L21.8221,1000  L27.3641,1000  L31.5339,1000  L34.1225,1000  L35,1000 " /><path d="M40 1005 A5 5 0 0 0 35 1000" /><path d="M-40 1015 A5 5 0 0 0 -35 1020" /><path d="M-35,1020 L-34.1225,1020  L-31.5339,1020  L-27.3641,1020  L-21.8221,1020  L-15.1859,1020  L-7.78823,1020  L1.15463e-14,1020  L7.78823,1020  L15.1859,1020  L21.8221,1020  L27.3641,1020  L31.5339,1020  L34.1225,1020  L35,1020 " /><path d="M40 1015 A5 5 0 0 1 35 1020" /></g>
</g>



<g id="Ortho_0_-1"
   transform="rotate(90,96.6181,-228.715) translate(96.6181,-228.715) scale(0.5,0.5)"
  >
<g   fill="none"
   stroke="rgb(0, 0, 0)"
   stroke-dasharray="0.2,0.1)"
   stroke-linecap="butt"
   stroke-linejoin="miter"
   stroke-width="0.300000"
   transform="scale(1,-1)"
  >
<path id= "1" d=" M 920 -20 L 1000 -20 " />
<path id= "2" d=" M 1000 -20 L 1000 -140 " />
<path id= "3" d=" M 980 -140 L 1000 -140 " />
<path id= "4" d=" M 920 -40 L 980 -140 " />
<path id= "5" d=" M 920 -20 L 920 -40 " />
<path d="M960,-20 L960.56,-20  L961.113,-20  L961.651,-20  L962.169,-20  L962.66,-20  L963.117,-20  L963.536,-20  L963.909,-20  L964.234,-20  L964.505,-20  L964.719,-20  L964.875,-20  L964.969,-20  L965,-20 " /><path d="M965,-20 L964.875,-20  L964.505,-20  L963.909,-20  L963.117,-20  L962.169,-20  L961.113,-20  L960,-20  L958.887,-20  L957.831,-20  L956.883,-20  L956.091,-20  L955.495,-20  L955.125,-20  L955,-20 " /><path d="M955,-20 Q955.016,-20 955.031,-20  Q955.078,-20 955.125,-20  Q955.203,-20 955.281,-20  Q955.388,-20 955.495,-20  Q955.631,-20 955.766,-20  Q955.929,-20 956.091,-20  Q956.278,-20 956.464,-20  Q956.674,-20 956.883,-20  Q957.111,-20 957.34,-20  Q957.585,-20 957.831,-20  Q958.09,-20 958.349,-20  Q958.618,-20 958.887,-20  Q959.438,-20 960,-20 " /><path d="M1000,-120 L1000,-120.56  L1000,-121.113  L1000,-121.651  L1000,-122.169  L1000,-122.66  L1000,-123.117  L1000,-123.536  L1000,-123.909  L1000,-124.234  L1000,-124.505  L1000,-124.719  L1000,-124.875  L1000,-124.969  L1000,-125 " /><path d="M1000,-125 L1000,-124.875  L1000,-124.505  L1000,-123.909  L1000,-123.117  L1000,-122.169  L1000,-121.113  L1000,-120  L1000,-118.887  L1000,-117.831  L1000,-116.883  L1000,-116.091  L1000,-115.495  L1000,-115.125  L1000,-115 " /><path d="M1000,-115 Q1000,-115.016 1000,-115.031  Q1000,-115.078 1000,-115.125  Q1000,-115.203 1000,-115.281  Q1000,-115.388 1000,-115.495  Q1000,-115.631 1000,-115.766  Q1000,-115.929 1000,-116.091  Q1000,-116.278 1000,-116.464  Q1000,-116.674 1000,-116.883  Q1000,-117.111 1000,-117.34  Q1000,-117.585 1000,-117.831  Q1000,-118.09 1000,-118.349  Q1000,-118.618 1000,-118.887  Q1000,-119.438 1000,-120 " /><path id= "12" d=" M 920 -40 L 980 -140 " />
<path d="M960,-40 L960.56,-40  L961.113,-40  L961.651,-40  L962.169,-40  L962.66,-40  L963.117,-40  L963.536,-40  L963.909,-40  L964.234,-40  L964.505,-40  L964.719,-40  L964.875,-40  L964.969,-40  L965,-40 " /><path d="M965,-40 L964.875,-40  L964.505,-40  L963.909,-40  L963.117,-40  L962.169,-40  L961.113,-40  L960,-40  L958.887,-40  L957.831,-40  L956.883,-40  L956.091,-40  L955.495,-40  L955.125,-40  L955,-40 " /><path d="M955,-40 Q955.016,-40 955.031,-40  Q955.078,-40 955.125,-40  Q955.203,-40 955.281,-40  Q955.388,-40 955.495,-40  Q955.631,-40 955.766,-40  Q955.929,-40 956.091,-40  Q956.278,-40 956.464,-40  Q956.674,-40 956.883,-40  Q957.111,-40 957.34,-40  Q957.585,-40 957.831,-40  Q958.09,-40 958.349,-40  Q958.618,-40 958.887,-40  Q959.438,-40 960,-40 " /><path d="M980,-120 L980,-120.56  L980,-121.113  L980,-121.651  L980,-122.169  L980,-122.66  L980,-123.117  L980,-123.536  L980,-123.909  L980,-124.234  L980,-124.505  L980,-124.719  L980,-124.875  L980,-124.969  L980,-125 " /><path d="M980,-125 L980,-124.875  L980,-124.505  L980,-123.909  L980,-123.117  L980,-122.169  L980,-121.113  L980,-120  L980,-118.887  L980,-117.831  L980,-116.883  L980,-116.091  L980,-115.495  L980,-115.125  L980,-115 " /><path d="M980,-115 Q980,-115.016 980,-115.031  Q980,-115.078 980,-115.125  Q980,-115.203 980,-115.281  Q980,-115.388 980,-115.495  Q980,-115.631 980,-115.766  Q980,-115.929 980,-116.091  Q980,-116.278 980,-116.464  Q980,-116.674 980,-116.883  Q980,-117.111 980,-117.34  Q980,-117.585 980,-117.831  Q980,-118.09 980,-118.349  Q980,-118.618 980,-118.887  Q980,-119.438 980,-120 " /><path id= "19" d=" M 920 -40 L 980 -140 " />
<path id= "20" d=" M 980 -40 L 980 -140 " />
<path id= "21" d=" M 980 -40 L 980 -140 " />
<path id= "22" d=" M 920 -40 L 980 -40 " />
<path id= "23" d=" M 920 -40 L 980 -40 " />
<path id= "24" d=" M 920 20 L 1000 20 " />
<path d="M960,20 L960.56,20  L961.113,20  L961.651,20  L962.169,20  L962.66,20  L963.117,20  L963.536,20  L963.909,20  L964.234,20  L964.505,20  L964.719,20  L964.875,20  L964.969,20  L965,20 " /><path d="M965,20 L964.875,20  L964.505,20  L963.909,20  L963.117,20  L962.169,20  L961.113,20  L960,20  L958.887,20  L957.831,20  L956.883,20  L956.091,20  L955.495,20  L955.125,20  L955,20 " /><path d="M955,20 Q955.016,20 955.031,20  Q955.078,20 955.125,20  Q955.203,20 955.281,20  Q955.388,20 955.495,20  Q955.631,20 955.766,20  Q955.929,20 956.091,20  Q956.278,20 956.464,20  Q956.674,20 956.883,20  Q957.111,20 957.34,20  Q957.585,20 957.831,20  Q958.09,20 958.349,20  Q958.618,20 958.887,20  Q959.438,20 960,20 " /><path id= "28" d=" M 1000 20 L 1000 140 " />
<path d="M1000,120 L1000,120.56  L1000,121.113  L1000,121.651  L1000,122.169  L1000,122.66  L1000,123.117  L1000,123.536  L1000,123.909  L1000,124.234  L1000,124.505  L1000,124.719  L1000,124.875  L1000,124.969  L1000,125 " /><path d="M1000,125 L1000,124.875  L1000,124.505  L1000,123.909  L1000,123.117  L1000,122.169  L1000,121.113  L1000,120  L1000,118.887  L1000,117.831  L1000,116.883  L1000,116.091  L1000,115.495  L1000,115.125  L1000,115 " /><path d="M1000,115 Q1000,115.016 1000,115.031  Q1000,115.078 1000,115.125  Q1000,115.203 1000,115.281  Q1000,115.388 1000,115.495  Q1000,115.631 1000,115.766  Q1000,115.929 1000,116.091  Q1000,116.278 1000,116.464  Q1000,116.674 1000,116.883  Q1000,117.111 1000,117.34  Q1000,117.585 1000,117.831  Q1000,118.09 1000,118.349  Q1000,118.618 1000,118.887  Q1000,119.438 1000,120 " /><path id= "32" d=" M 980 140 L 1000 140 " />
<path id= "33" d=" M 920 40 L 980 140 " />
<path id= "34" d=" M 920 20 L 920 40 " />
<path id= "35" d=" M 920 40 L 980 140 " />
<path d="M960,40 L960.56,40  L961.113,40  L961.651,40  L962.169,40  L962.66,40  L963.117,40  L963.536,40  L963.909,40  L964.234,40  L964.505,40  L964.719,40  L964.875,40  L964.969,40  L965,40 " /><path d="M965,40 L964.875,40  L964.505,40  L963.909,40  L963.117,40  L962.169,40  L961.113,40  L960,40  L958.887,40  L957.831,40  L956.883,40  L956.091,40  L955.495,40  L955.125,40  L955,40 " /><path d="M955,40 Q955.016,40 955.031,40  Q955.078,40 955.125,40  Q955.203,40 955.281,40  Q955.388,40 955.495,40  Q955.631,40 955.766,40  Q955.929,40 956.091,40  Q956.278,40 956.464,40  Q956.674,40 956.883,40  Q957.111,40 957.34,40  Q957.585,40 957.831,40  Q958.09,40 958.349,40  Q958.618,40 958.887,40  Q959.438,40 960,40 " /><path d="M980,120 L980,120.56  L980,121.113  L980,121.651  L980,122.169  L980,122.66  L980,123.117  L980,123.536  L980,123.909  L980,124.234  L980,124.505  L980,124.719  L980,124.875  L980,124.969  L980,125 " /><path d="M980,125 L980,124.875  L980,124.505  L980,123.909  L980,123.117  L980,122.169  L980,121.113  L980,120  L980,118.887  L980,117.831  L980,116.883  L980,116.091  L980,115.495  L980,115.125  L980,115 " /><path d="M980,115 Q980,115.016 980,115.031  Q980,115.078 980,115.125  Q980,115.203 980,115.281  Q980,115.388 980,115.495  Q980,115.631 980,115.766  Q980,115.929 980,116.091  Q980,116.278 980,116.464  Q980,116.674 980,116.883  Q980,117.111 980,117.34  Q980,117.585 980,117.831  Q980,118.09 980,118.349  Q980,118.618 980,118.887  Q980,119.438 980,120 " /><path id= "42" d=" M 920 40 L 980 140 " />
<path id= "43" d=" M 980 40 L 980 140 " />
<path id= "44" d=" M 980 40 L 980 140 " />
<path id= "45" d=" M 920 40 L 980 40 " />
<path id= "46" d=" M 920 40 L 980 40 " />
<path id= "47" d=" M 960 15 L 960 5 " />
<path id= "48" d=" M 640 15 L 640 5 " />
<path id= "49" d=" M 640 20 L 960 20 " />
<path id= "50" d=" M 640 -7.10543e-15 L 960 -7.10543e-15 " />
<path d="M960,20 L963.919,20  L967.788,20  L971.56,20  L975.186,20  L978.621,20  L981.822,20  L984.749,20  L987.364,20  L989.635,20  L991.534,20  L993.036,20  L994.122,20  L994.78,20  L995,20 " /><path d="M960,-3.55271e-15 L963.919,-3.55271e-15  L967.788,-3.55271e-15  L971.56,-3.55271e-15  L975.186,-3.55271e-15  L978.621,-3.55271e-15  L981.822,-3.55271e-15  L984.749,-3.55271e-15  L987.364,0  L989.635,0  L991.534,0  L993.036,0  L994.122,3.55271e-15  L994.78,3.55271e-15  L995,3.55271e-15 " /><path d="M995,20 L994.78,20  L994.122,20  L993.036,20  L991.534,20  L989.635,20  L987.364,20  L984.749,20  L981.822,20  L978.621,20  L975.186,20  L971.56,20  L967.788,20  L963.919,20  L960,20 " /><path d="M605,20 L605.22,20  L605.878,20  L606.964,20  L608.466,20  L610.365,20  L612.636,20  L615.251,20  L618.178,20  L621.379,20  L624.814,20  L628.44,20  L632.212,20  L636.081,20  L640,20 " /><path id= "55" d=" M 960 20 L 920 20 " />
<path d="M640,20 L640.56,20  L641.113,20  L641.651,20  L642.169,20  L642.66,20  L643.117,20  L643.536,20  L643.909,20  L644.234,20  L644.505,20  L644.719,20  L644.875,20  L644.969,20  L645,20 " /><path d="M645,20 Q644.984,20 644.969,20  Q644.922,20 644.875,20  Q644.797,20 644.719,20  Q644.612,20 644.505,20  Q644.369,20 644.234,20  Q644.071,20 643.909,20  Q643.722,20 643.536,20  Q643.326,20 643.117,20  Q642.889,20 642.66,20  Q642.415,20 642.169,20  Q641.91,20 641.651,20  Q641.382,20 641.113,20  Q640.562,20 640,20 " /><path d="M640,20 L639.44,20  L638.887,20  L638.349,20  L637.831,20  L637.34,20  L636.883,20  L636.464,20  L636.091,20  L635.766,20  L635.495,20  L635.281,20  L635.125,20  L635.031,20  L635,20 " /><path d="M635,20 Q635.016,20 635.031,20  Q635.078,20 635.125,20  Q635.203,20 635.281,20  Q635.388,20 635.495,20  Q635.631,20 635.766,20  Q635.929,20 636.091,20  Q636.278,20 636.464,20  Q636.674,20 636.883,20  Q637.111,20 637.34,20  Q637.585,20 637.831,20  Q638.09,20 638.349,20  Q638.618,20 638.887,20  Q639.438,20 640,20 " /><path d="M885,20 L884.875,20  L884.505,20  L883.909,20  L883.117,20  L882.169,20  L881.113,20  L880,20  L878.887,20  L877.831,20  L876.883,20  L876.091,20  L875.495,20  L875.125,20  L875,20 " /><path d="M875,20 L875.125,20  L875.495,20  L876.091,20  L876.883,20  L877.831,20  L878.887,20  L880,20  L881.113,20  L882.169,20  L883.117,20  L883.909,20  L884.505,20  L884.875,20  L885,20 " /><path d="M805,20 L804.875,20  L804.505,20  L803.909,20  L803.117,20  L802.169,20  L801.113,20  L800,20  L798.887,20  L797.831,20  L796.883,20  L796.091,20  L795.495,20  L795.125,20  L795,20 " /><path d="M795,20 L795.125,20  L795.495,20  L796.091,20  L796.883,20  L797.831,20  L798.887,20  L800,20  L801.113,20  L802.169,20  L803.117,20  L803.909,20  L804.505,20  L804.875,20  L805,20 " /><path d="M725,20 L724.875,20  L724.505,20  L723.909,20  L723.117,20  L722.169,20  L721.113,20  L720,20  L718.887,20  L717.831,20  L716.883,20  L716.091,20  L715.495,20  L715.125,20  L715,20 " /><path d="M715,20 L715.125,20  L715.495,20  L716.091,20  L716.883,20  L717.831,20  L718.887,20  L720,20  L721.113,20  L722.169,20  L723.117,20  L723.909,20  L724.505,20  L724.875,20  L725,20 " /><path d="M960,20 L959.44,20  L958.887,20  L958.349,20  L957.831,20  L957.34,20  L956.883,20  L956.464,20  L956.091,20  L955.766,20  L955.495,20  L955.281,20  L955.125,20  L955.031,20  L955,20 " /><path d="M955,20 Q955.016,20 955.031,20  Q955.078,20 955.125,20  Q955.203,20 955.281,20  Q955.388,20 955.495,20  Q955.631,20 955.766,20  Q955.929,20 956.091,20  Q956.278,20 956.464,20  Q956.674,20 956.883,20  Q957.111,20 957.34,20  Q957.585,20 957.831,20  Q958.09,20 958.349,20  Q958.618,20 958.887,20  Q959.438,20 960,20 " /><path d="M960,20 L960.56,20  L961.113,20  L961.651,20  L962.169,20  L962.66,20  L963.117,20  L963.536,20  L963.909,20  L964.234,20  L964.505,20  L964.719,20  L964.875,20  L964.969,20  L965,20 " /><path d="M965,20 Q964.984,20 964.969,20  Q964.922,20 964.875,20  Q964.797,20 964.719,20  Q964.612,20 964.505,20  Q964.369,20 964.234,20  Q964.071,20 963.909,20  Q963.722,20 963.536,20  Q963.326,20 963.117,20  Q962.889,20 962.66,20  Q962.415,20 962.169,20  Q961.91,20 961.651,20  Q961.382,20 961.113,20  Q960.562,20 960,20 " /><path d="M605,3.55271e-15 L605.22,3.55271e-15  L605.878,3.55271e-15  L606.964,0  L608.466,0  L610.365,0  L612.636,0  L615.251,-3.55271e-15  L618.178,-3.55271e-15  L621.379,-3.55271e-15  L624.814,-3.55271e-15  L628.44,-3.55271e-15  L632.212,-3.55271e-15  L636.081,-3.55271e-15  L640,-3.55271e-15 " /><path d="M640,0 L640.56,0  L641.113,0  L641.651,0  L642.169,0  L642.66,0  L643.117,0  L643.536,0  L643.909,0  L644.234,0  L644.505,0  L644.719,0  L644.875,0  L644.969,0  L645,0 " /><path d="M635,0 Q635.016,0 635.031,0  Q635.078,0 635.125,0  Q635.203,0 635.281,0  Q635.388,0 635.495,0  Q635.631,0 635.766,0  Q635.929,0 636.091,0  Q636.278,0 636.464,0  Q636.674,0 636.883,0  Q637.111,0 637.34,0  Q637.585,0 637.831,0  Q638.09,0 638.349,0  Q638.618,0 638.887,0  Q639.438,0 640,0 " /><path d="M645,0 Q644.984,0 644.969,0  Q644.922,0 644.875,0  Q644.797,0 644.719,0  Q644.612,0 644.505,0  Q644.369,0 644.234,0  Q644.071,0 643.909,0  Q643.722,0 643.536,0  Q643.326,0 643.117,0  Q642.889,0 642.66,0  Q642.415,0 642.169,0  Q641.91,0 641.651,0  Q641.382,0 641.113,0  Q640.562,0 640,0 " /><path d="M885,0 L884.875,0  L884.505,0  L883.909,0  L883.117,0  L882.169,0  L881.113,0  L880,0  L878.887,0  L877.831,0  L876.883,0  L876.091,0  L875.495,0  L875.125,0  L875,0 " /><path d="M875,0 L875.125,0  L875.495,0  L876.091,0  L876.883,0  L877.831,0  L878.887,0  L880,0  L881.113,0  L882.169,0  L883.117,0  L883.909,0  L884.505,0  L884.875,0  L885,0 " /><path d="M805,0 L804.875,0  L804.505,0  L803.909,0  L803.117,0  L802.169,0  L801.113,0  L800,0  L798.887,0  L797.831,0  L796.883,0  L796.091,0  L795.495,0  L795.125,0  L795,0 " /><path d="M795,0 L795.125,0  L795.495,0  L796.091,0  L796.883,0  L797.831,0  L798.887,0  L800,0  L801.113,0  L802.169,0  L803.117,0  L803.909,0  L804.505,0  L804.875,0  L805,0 " /><path d="M725,0 L724.875,0  L724.505,0  L723.909,0  L723.117,0  L722.169,0  L721.113,0  L720,0  L718.887,0  L717.831,0  L716.883,0  L716.091,0  L715.495,0  L715.125,0  L715,0 " /><path d="M715,0 L715.125,0  L715.495,0  L716.091,0  L716.883,0  L717.831,0  L718.887,0  L720,0  L721.113,0  L722.169,0  L723.117,0  L723.909,0  L724.505,0  L724.875,0  L725,0 " /><path d="M960,0 L959.44,0  L958.887,0  L958.349,0  L957.831,0  L957.34,0  L956.883,0  L956.464,0  L956.091,0  L955.766,0  L955.495,0  L955.281,0  L955.125,0  L955.031,0  L955,0 " /><path d="M955,0 Q955.016,0 955.031,0  Q955.078,0 955.125,0  Q955.203,0 955.281,0  Q955.388,0 955.495,0  Q955.631,0 955.766,0  Q955.929,0 956.091,0  Q956.278,0 956.464,0  Q956.674,0 956.883,0  Q957.111,0 957.34,0  Q957.585,0 957.831,0  Q958.09,0 958.349,0  Q958.618,0 958.887,0  Q959.438,0 960,0 " /><path d="M965,0 Q964.984,0 964.969,0  Q964.922,0 964.875,0  Q964.797,0 964.719,0  Q964.612,0 964.505,0  Q964.369,0 964.234,0  Q964.071,0 963.909,0  Q963.722,0 963.536,0  Q963.326,0 963.117,0  Q962.889,0 962.66,0  Q962.415,0 962.169,0  Q961.91,0 961.651,0  Q961.382,0 961.113,0  Q960.562,0 960,0 " /><path d="M960,0 L960.56,0  L961.113,0  L961.651,0  L962.169,0  L962.66,0  L963.117,0  L963.536,0  L963.909,0  L964.234,0  L964.505,0  L964.719,0  L964.875,0  L964.969,0  L965,0 " /><path id= "84" d=" M 645 20 L 645 0 " />
<path id= "85" d=" M 885 20 L 885 0 " />
<path id= "86" d=" M 805 20 L 805 0 " />
<path id= "87" d=" M 725 20 L 725 0 " />
<path id= "88" d=" M 965 20 L 965 0 " />
<path id= "89" d=" M 1005 120 L 1015 120 " />
<path id= "90" d=" M 1005 -120 L 1015 -120 " />
<path id= "91" d=" M 1000 -120 L 1000 120 " />
<path id= "92" d=" M 1020 -120 L 1020 120 " />
<path d="M1000,120 L1000,123.919  L1000,127.788  L1000,131.56  L1000,135.186  L1000,138.621  L1000,141.822  L1000,144.749  L1000,147.364  L1000,149.635  L1000,151.534  L1000,153.036  L1000,154.122  L1000,154.78  L1000,155 " /><path d="M1020,120 L1020,123.919  L1020,127.788  L1020,131.56  L1020,135.186  L1020,138.621  L1020,141.822  L1020,144.749  L1020,147.364  L1020,149.635  L1020,151.534  L1020,153.036  L1020,154.122  L1020,154.78  L1020,155 " /><path d="M1000,140 Q1000,139.367 1000,138.734  Q1000,138.083 1000,137.432  Q1000,136.765 1000,136.097  Q1000,135.415 1000,134.732  Q1000,134.036 1000,133.339  Q1000,132.63 1000,131.921  Q1000,131.201 1000,130.481  Q1000,129.751 1000,129.021  Q1000,128.282 1000,127.543  Q1000,126.798 1000,126.052  Q1000,125.3 1000,124.549  Q1000,123.793 1000,123.037  Q1000,121.521 1000,120 " /><path d="M1000,-120 C1000,-121.521 1000,-123.04 1000,-124.549  C1000,-125.05 1000,-125.551 1000,-126.052  C1000,-126.549 1000,-127.046 1000,-127.543  C1000,-128.036 1000,-128.528 1000,-129.021  C1000,-129.507 1000,-129.994 1000,-130.481  C1000,-130.961 1000,-131.441 1000,-131.921  C1000,-132.394 1000,-132.867 1000,-133.339  C1000,-133.804 1000,-134.268 1000,-134.732  C1000,-135.187 1000,-135.642 1000,-136.097  C1000,-136.542 1000,-136.987 1000,-137.432  C1000,-137.866 1000,-138.3 1000,-138.734  C1000,-139.156 1000,-139.578 1000,-140 " /><path d="M1000,-155 L1000,-154.78  L1000,-154.122  L1000,-153.036  L1000,-151.534  L1000,-149.635  L1000,-147.364  L1000,-144.749  L1000,-141.822  L1000,-138.621  L1000,-135.186  L1000,-131.56  L1000,-127.788  L1000,-123.919  L1000,-120 " /><path id= "98" d=" M 1000 120 L 1000 20 " />
<path id= "99" d=" M 1000 -20 L 1000 -120 " />
<path d="M1000,125 L1000,124.875  L1000,124.505  L1000,123.909  L1000,123.117  L1000,122.169  L1000,121.113  L1000,120  L1000,118.887  L1000,117.831  L1000,116.883  L1000,116.091  L1000,115.495  L1000,115.125  L1000,115 " /><path d="M1000,115 L1000,115.125  L1000,115.495  L1000,116.091  L1000,116.883  L1000,117.831  L1000,118.887  L1000,120  L1000,121.113  L1000,122.169  L1000,123.117  L1000,123.909  L1000,124.505  L1000,124.875  L1000,125 " /><path d="M1000,45 L1000,44.8746  L1000,44.5048  L1000,43.9092  L1000,43.1174  L1000,42.1694  L1000,41.1126  L1000,40  L1000,38.8874  L1000,37.8306  L1000,36.8826  L1000,36.0908  L1000,35.4952  L1000,35.1254  L1000,35 " /><path d="M1000,35 L1000,35.1254  L1000,35.4952  L1000,36.0908  L1000,36.8826  L1000,37.8306  L1000,38.8874  L1000,40  L1000,41.1126  L1000,42.1694  L1000,43.1174  L1000,43.9092  L1000,44.5048  L1000,44.8746  L1000,45 " /><path d="M1000,-35 L1000,-35.1254  L1000,-35.4952  L1000,-36.0908  L1000,-36.8826  L1000,-37.8306  L1000,-38.8874  L1000,-40  L1000,-41.1126  L1000,-42.1694  L1000,-43.1174  L1000,-43.9092  L1000,-44.5048  L1000,-44.8746  L1000,-45 " /><path d="M1000,-45 L1000,-44.8746  L1000,-44.5048  L1000,-43.9092  L1000,-43.1174  L1000,-42.1694  L1000,-41.1126  L1000,-40  L1000,-38.8874  L1000,-37.8306  L1000,-36.8826  L1000,-36.0908  L1000,-35.4952  L1000,-35.1254  L1000,-35 " /><path d="M1000,-115 L1000,-115.125  L1000,-115.495  L1000,-116.091  L1000,-116.883  L1000,-117.831  L1000,-118.887  L1000,-120  L1000,-121.113  L1000,-122.169  L1000,-123.117  L1000,-123.909  L1000,-124.505  L1000,-124.875  L1000,-125 " /><path d="M1000,-125 L1000,-124.875  L1000,-124.505  L1000,-123.909  L1000,-123.117  L1000,-122.169  L1000,-121.113  L1000,-120  L1000,-118.887  L1000,-117.831  L1000,-116.883  L1000,-116.091  L1000,-115.495  L1000,-115.125  L1000,-115 " /><path d="M1020,-155 L1020,-154.78  L1020,-154.122  L1020,-153.036  L1020,-151.534  L1020,-149.635  L1020,-147.364  L1020,-144.749  L1020,-141.822  L1020,-138.621  L1020,-135.186  L1020,-131.56  L1020,-127.788  L1020,-123.919  L1020,-120 " /><path d="M1020,125 L1020,124.875  L1020,124.505  L1020,123.909  L1020,123.117  L1020,122.169  L1020,121.113  L1020,120  L1020,118.887  L1020,117.831  L1020,116.883  L1020,116.091  L1020,115.495  L1020,115.125  L1020,115 " /><path d="M1020,115 L1020,115.125  L1020,115.495  L1020,116.091  L1020,116.883  L1020,117.831  L1020,118.887  L1020,120  L1020,121.113  L1020,122.169  L1020,123.117  L1020,123.909  L1020,124.505  L1020,124.875  L1020,125 " /><path d="M1020,45 L1020,44.8746  L1020,44.5048  L1020,43.9092  L1020,43.1174  L1020,42.1694  L1020,41.1126  L1020,40  L1020,38.8874  L1020,37.8306  L1020,36.8826  L1020,36.0908  L1020,35.4952  L1020,35.1254  L1020,35 " /><path d="M1020,35 L1020,35.1254  L1020,35.4952  L1020,36.0908  L1020,36.8826  L1020,37.8306  L1020,38.8874  L1020,40  L1020,41.1126  L1020,42.1694  L1020,43.1174  L1020,43.9092  L1020,44.5048  L1020,44.8746  L1020,45 " /><path d="M1020,-35 L1020,-35.1254  L1020,-35.4952  L1020,-36.0908  L1020,-36.8826  L1020,-37.8306  L1020,-38.8874  L1020,-40  L1020,-41.1126  L1020,-42.1694  L1020,-43.1174  L1020,-43.9092  L1020,-44.5048  L1020,-44.8746  L1020,-45 " /><path d="M1020,-45 L1020,-44.8746  L1020,-44.5048  L1020,-43.9092  L1020,-43.1174  L1020,-42.1694  L1020,-41.1126  L1020,-40  L1020,-38.8874  L1020,-37.8306  L1020,-36.8826  L1020,-36.0908  L1020,-35.4952  L1020,-35.1254  L1020,-35 " /><path d="M1020,-115 L1020,-115.125  L1020,-115.495  L1020,-116.091  L1020,-116.883  L1020,-117.831  L1020,-118.887  L1020,-120  L1020,-121.113  L1020,-122.169  L1020,-123.117  L1020,-123.909  L1020,-124.505  L1020,-124.875  L1020,-125 " /><path d="M1020,-125 L1020,-124.875  L1020,-124.505  L1020,-123.909  L1020,-123.117  L1020,-122.169  L1020,-121.113  L1020,-120  L1020,-118.887  L1020,-117.831  L1020,-116.883  L1020,-116.091  L1020,-115.495  L1020,-115.125  L1020,-115 " /><path id= "117" d=" M 1000 125 L 1020 125 " />
<path id= "118" d=" M 1000 45 L 1020 45 " />
<path id= "119" d=" M 1000 -35 L 1020 -35 " />
<path id= "120" d=" M 1000 -115 L 1020 -115 " />
<path id= "121" d=" M 1000 -5 L 1000 -15 " />
<path d="M925,0 L925.878,0  L928.466,0  L932.636,0  L938.178,0  L944.814,0  L952.212,0  L960,0  L967.788,0  L975.186,0  L981.822,0  L987.364,0  L991.534,0  L994.122,0  L995,0 " /><path d="M995,-20 L994.122,-20  L991.534,-20  L987.364,-20  L981.822,-20  L975.186,-20  L967.788,-20  L960,-20  L952.212,-20  L944.814,-20  L938.178,-20  L932.636,-20  L928.466,-20  L925.878,-20  L925,-20 " /><path d="M925,-20 L925.878,-20  L928.466,-20  L932.636,-20  L938.178,-20  L944.814,-20  L952.212,-20  L960,-20  L967.788,-20  L975.186,-20  L981.822,-20  L987.364,-20  L991.534,-20  L994.122,-20  L995,-20 " /><path d="M965,0 L964.875,0  L964.505,0  L963.909,0  L963.117,0  L962.169,0  L961.113,0  L960,0  L958.887,0  L957.831,0  L956.883,0  L956.091,0  L955.495,0  L955.125,0  L955,0 " /><path d="M955,0 L955.125,0  L955.495,0  L956.091,0  L956.883,0  L957.831,0  L958.887,0  L960,0  L961.113,0  L962.169,0  L963.117,0  L963.909,0  L964.505,0  L964.875,0  L965,0 " /><path d="M965,-20 L964.875,-20  L964.505,-20  L963.909,-20  L963.117,-20  L962.169,-20  L961.113,-20  L960,-20  L958.887,-20  L957.831,-20  L956.883,-20  L956.091,-20  L955.495,-20  L955.125,-20  L955,-20 " /><path d="M955,-20 L955.125,-20  L955.495,-20  L956.091,-20  L956.883,-20  L957.831,-20  L958.887,-20  L960,-20  L961.113,-20  L962.169,-20  L963.117,-20  L963.909,-20  L964.505,-20  L964.875,-20  L965,-20 " /><path id= "129" d=" M 965 0 L 965 -20 " />
</g>
<g   fill="none"
   stroke="rgb(0, 0, 0)"
   stroke-dasharray="0.02,0.1)"
   stroke-linecap="butt"
   stroke-linejoin="miter"
   stroke-width="0.300000"
   transform="scale(1,-1)"
  >
<path id= "1" d=" M 965 -40 L 965 -20 " />
<path id= "2" d=" M 955 -40 L 955 -20 " />
<path id= "3" d=" M 980 -125 L 1000 -125 " />
<path id= "4" d=" M 980 -115 L 1000 -115 " />
<path id= "5" d=" M 955 40 L 955 20 " />
<path id= "6" d=" M 965 40 L 965 20 " />
<path id= "7" d=" M 980 115 L 1000 115 " />
<path id= "8" d=" M 980 125 L 1000 125 " />
<path id= "9" d=" M 1000 15 L 1000 5 " />
<path id= "10" d=" M 635 20 L 635 0 " />
<path id= "11" d=" M 875 20 L 875 0 " />
<path id= "12" d=" M 795 20 L 795 0 " />
<path id= "13" d=" M 715 20 L 715 0 " />
<path id= "14" d=" M 955 20 L 955 0 " />
<path id= "15" d=" M 1000 115 L 1020 115 " />
<path id= "16" d=" M 1000 35 L 1020 35 " />
<path id= "17" d=" M 1000 -45 L 1020 -45 " />
<path id= "18" d=" M 1000 -125 L 1020 -125 " />
<path id= "19" d=" M 955 0 L 955 -20 " />
</g>
<g   fill="none"
   stroke="rgb(0, 0, 0)"
   stroke-linecap="butt"
   stroke-linejoin="miter"
   stroke-width="0.700000"
   transform="scale(1,-1)"
  >
<path id= "1" d=" M 600 15 L 600 5 " />
<path d="M600,15 C599.997,16.1266 600.391,17.2488 601.098,18.1262  C601.336,18.4237 601.605,18.6904 601.905,18.9266  C602.777,19.6181 603.887,20.0028 605,20 " /><path d="M600,5 C599.997,3.8734 600.391,2.75118 601.098,1.87379  C601.336,1.57635 601.605,1.30955 601.905,1.07341  C602.777,0.381862 603.887,-0.0028208 605,3.4972e-15 " /><path id= "4" d=" M 1005 160 L 1015 160 " />
<path id= "5" d=" M 1005 -160 L 1015 -160 " />
<path d="M1005,-160 C1004.25,-160.001 1003.51,-159.831 1002.84,-159.507  C1002.16,-159.185 1001.56,-158.709 1001.1,-158.126  C1000.39,-157.249 999.997,-156.127 1000,-155 " /><path d="M1015,-160 C1015.75,-160.001 1016.49,-159.831 1017.16,-159.507  C1017.84,-159.185 1018.44,-158.709 1018.9,-158.126  C1019.61,-157.249 1020,-156.127 1020,-155 " /><path id= "8" d=" M 920 -5 L 920 -15 " />
<path d="M920,-5 C919.997,-3.8734 920.391,-2.75118 921.098,-1.87379  C921.336,-1.57635 921.605,-1.30955 921.905,-1.07341  C922.777,-0.381862 923.887,0.0028208 925,0 " /><path d="M920,-15 C919.997,-16.1266 920.391,-17.2488 921.098,-18.1262  C921.336,-18.4237 921.605,-18.6904 921.905,-18.9266  C922.777,-19.6181 923.887,-20.0028 925,-20 " /></g>
<g   fill="none"
   stroke="rgb(0, 0, 0)"
   stroke-linecap="butt"
   stroke-linejoin="miter"
   stroke-width="0.700000"
   transform="scale(1,-1)"
  >
<path id= "1" d=" M 920 -20 L 1000 -20 " />
<path id= "2" d=" M 1000 -20 L 1000 -140 " />
<path id= "3" d=" M 980 -140 L 1000 -140 " />
<path id= "4" d=" M 920 -20 L 920 -40 " />
<path id= "5" d=" M 920 -40 L 980 -140 " />
<path id= "6" d=" M 920 20 L 1000 20 " />
<path id= "7" d=" M 1000 20 L 1000 140 " />
<path id= "8" d=" M 980 140 L 1000 140 " />
<path id= "9" d=" M 920 40 L 980 140 " />
<path id= "10" d=" M 920 20 L 920 40 " />
<path id= "11" d=" M 960 15 L 960 5 " />
<path id= "12" d=" M 640 15 L 640 5 " />
<path d="M1000 15 A5 5 0 0 1 995 20" /><path d="M1000 5 A5 5 0 0 0 995 3.55271e-15" /><path d="M995,3.55271e-15 L994.78,3.55271e-15  L994.122,3.55271e-15  L993.036,7.10543e-15  L991.534,7.10543e-15  L989.635,7.10543e-15  L987.364,7.10543e-15  L984.749,1.06581e-14  L981.822,1.06581e-14  L978.621,1.06581e-14  L975.186,1.06581e-14  L971.56,1.06581e-14  L967.788,1.06581e-14  L963.919,1.06581e-14  L960,1.06581e-14 " /><path d="M640,20 L636.081,20  L632.212,20  L628.44,20  L624.814,20  L621.379,20  L618.178,20  L615.251,20  L612.636,20  L610.365,20  L608.466,20  L606.964,20  L605.878,20  L605.22,20  L605,20 " /><path id= "17" d=" M 920 20 L 640 20 " />
<path d="M640,1.06581e-14 L636.081,1.06581e-14  L632.212,1.06581e-14  L628.44,1.06581e-14  L624.814,1.06581e-14  L621.379,1.06581e-14  L618.178,1.06581e-14  L615.251,1.06581e-14  L612.636,7.10543e-15  L610.365,7.10543e-15  L608.466,7.10543e-15  L606.964,7.10543e-15  L605.878,3.55271e-15  L605.22,3.55271e-15  L605,3.55271e-15 " /><path id= "19" d=" M 960 1.42109e-14 L 640 1.42109e-14 " />
<path d="M640,0 L639.44,0  L638.887,0  L638.349,0  L637.831,0  L637.34,0  L636.883,0  L636.464,0  L636.091,0  L635.766,0  L635.495,0  L635.281,0  L635.125,0  L635.031,0  L635,0 " /><path id= "21" d=" M 1005 120 L 1015 120 " />
<path id= "22" d=" M 1005 -120 L 1015 -120 " />
<path d="M1005 160 A5 5 0 0 1 1000 155" /><path d="M1015 160 A5 5 0 0 0 1020 155" /><path d="M1000,155 L1000,154.917  L1000,154.67  L1000,154.258  L1000,153.685  L1000,152.952  L1000,152.064  L1000,151.024  L1000,149.838  L1000,148.51  L1000,147.048  L1000,145.459  L1000,143.748  L1000,141.926  L1000,140 " /><path d="M1020,155 L1020,154.78  L1020,154.122  L1020,153.036  L1020,151.534  L1020,149.635  L1020,147.364  L1020,144.749  L1020,141.822  L1020,138.621  L1020,135.186  L1020,131.56  L1020,127.788  L1020,123.919  L1020,120 " /><path d="M1000,-140 L1000,-141.926  L1000,-143.748  L1000,-145.459  L1000,-147.048  L1000,-148.51  L1000,-149.838  L1000,-151.024  L1000,-152.064  L1000,-152.952  L1000,-153.685  L1000,-154.258  L1000,-154.67  L1000,-154.917  L1000,-155 " /><path id= "28" d=" M 1000 20 L 1000 -20 " />
<path d="M1020,-120 L1020,-123.919  L1020,-127.788  L1020,-131.56  L1020,-135.186  L1020,-138.621  L1020,-141.822  L1020,-144.749  L1020,-147.364  L1020,-149.635  L1020,-151.534  L1020,-153.036  L1020,-154.122  L1020,-154.78  L1020,-155 " /><path id= "30" d=" M 1020 120 L 1020 -120 " />
<path d="M1000 -5 A5 5 0 0 1 995 0" /><path d="M995,0 L994.122,0  L991.534,0  L987.364,0  L981.822,0  L975.186,0  L967.788,0  L960,0  L952.212,0  L944.814,0  L938.178,0  L932.636,0  L928.466,0  L925.878,0  L925,0 " /><path d="M1000 -15 A5 5 0 0 0 995 -20" /></g>
</g>



</svg>

