<?xml version="1.0" encoding="UTF-8"?>

<svg xmlns="http://www.w3.org/2000/svg" version="1.1"
    xmlns:freecad="http://www.freecadweb.org/wiki/index.php?title=Svg_Namespace"
	width="420mm"
	height="297mm"
	viewBox="0 0 420 297">
	<!-- Working space 0 0 420 297 -->
	<defs>
		<radialGradient
			id="radialGradient3661"
			gradientUnits="userSpaceOnUse"
			cy="29.149"
			cx="282.65"
			gradientTransform="matrix(.14777 .23089 -.24680 .15795 -26.318 -62.617)"
			r="19.571">
				<stop stop-color="#71b2f8" offset="0"/>
				<stop stop-color="#002795" offset="1"/>
		</radialGradient>
		<radialGradient
			id="radialGradient3817"
			gradientUnits="userSpaceOnUse"
			cy="33.9"
			cx="270.58"
			gradientTransform="matrix(.26631 .065024 -.17931 .73438 -60.668 -36.938)"
			r="19.571">
				<stop stop-color="#ff6d0f" offset="0"/>
				<stop stop-color="#ff1000" offset="1"/>
		</radialGradient>
	</defs>
	<!-- Set display:none to hide FreeCAD Logo -->
	<g
		style="display:inline"
		id="freecad-logo"
		transform="translate(386, 264) scale(1.5)"
		fill-rule="evenodd"
		stroke-width=".45621">
		<path d="m0.22811 0.22835v13.256h2.9558v-5.1876h2.09v-2.0452h-2.09v-2.2075h5.1486v-3.8087l-8.1044-0.0075z"
			stroke="#370700"
			fill="url(#radialGradient3817)"/>
		<path d="m13.386 4.1792-1.7193 0.98645-0.75925-0.26348-0.72439-1.8513-1.1395 0.05988-0.51976 1.9144-0.72743 0.34835-1.8143-0.79367-0.76632 0.85156 0.98645 1.7193-0.26957 0.75702-1.8513 0.72439 0.065967 1.1417 1.9144 0.51976 0.34835 0.72743-0.79976 1.8121 0.85156 0.76632 1.7193-0.98645 0.76311 0.27179 0.7183 1.8491 1.1478-0.06375 0.51367-1.9166 0.72743-0.34835 1.8182 0.80198 0.76632-0.85156-0.98645-1.7193 0.2657-0.76533 1.8491-0.7183-0.05766-1.1456-1.9166-0.51367-0.34835-0.72743 0.7959-1.8204-0.85156-0.76632zm-2.5751 2.8195 0.35295 0.20478 0.30579 0.27725 0.24481 0.33087 0.17611 0.36787 0.10354 0.39656 0.01715 0.4064-0.0587 0.4063-0.13396 0.38571-0.2131 0.35681-0.26894 0.30192-0.33087 0.24481-0.36787 0.17611-0.39656 0.10354-0.40863 0.02325-0.4063-0.0587-0.38571-0.13396-0.35681-0.2131-0.2997-0.27503-0.24703-0.32478-0.17611-0.36787-0.10132-0.40264-0.02324-0.40863 0.05869-0.4063 0.13396-0.38571 0.21087-0.35072 0.27116-0.30801 0.33087-0.24481 0.36787-0.17611 0.40264-0.10132 0.40641-0.01715 0.4063 0.05869 0.38571 0.13396z" 
		stroke="#000137"
		fill="url(#radialGradient3661)"/>
	</g>
<g id="Ortho_0_0"
   transform="rotate(-90,90.8212,262.107) translate(90.8212,262.107) scale(0.125,0.125)"
  >
<g   fill="none"
   stroke="rgb(0, 0, 0)"
   stroke-linecap="butt"
   stroke-linejoin="miter"
   stroke-width="2.800000"
   transform="scale(1,-1)"
  >
<path d="M-40,5 L-40,5 " /><path d="M-40,15 L-40,15 " /><path d="M285,-180 C283.913,-180.003 282.829,-179.636 281.967,-178.975  C280.911,-178.176 280.2,-176.941 280.039,-175.627  C280.013,-175.419 280,-175.21 280,-175 " /><path d="M295,-180 C296.087,-180.003 297.171,-179.636 298.033,-178.975  C298.878,-178.333 299.508,-177.414 299.801,-176.395  C299.933,-175.939 300,-175.474 300,-175 " /><path id= "5" d=" M -40.726 -35 L -40.726 -25 " />
<path d="M-40.726,-35 C-40.7273,-35.9097 -40.4732,-36.8179 -40,-37.5948 " /><path d="M-40.726,-25 C-40.7273,-24.0903 -40.4732,-23.1821 -40,-22.4052 " /><path d="M280,-35 C280.003,-36.1397 279.599,-37.2748 278.877,-38.1568  C278.637,-38.4523 278.366,-38.717 278.065,-38.9508  C277.197,-39.6272 276.101,-40.0026 275,-40 " /><path d="M280,-25 C280.003,-23.8603 279.599,-22.7252 278.877,-21.8432  C278.637,-21.5477 278.366,-21.283 278.065,-21.0492  C277.197,-20.3727 276.1,-19.9973 275,-20 " /><path id= "10" d=" M 285 140 L 295 140 " />
<path id= "11" d=" M 285 -180 L 295 -180 " />
<path d="M285,-180 C283.913,-180.003 282.829,-179.636 281.967,-178.975  C280.911,-178.176 280.2,-176.941 280.039,-175.627  C280.013,-175.419 280,-175.21 280,-175 " /><path d="M295,-180 C296.087,-180.003 297.171,-179.636 298.033,-178.975  C298.878,-178.333 299.508,-177.414 299.801,-176.395  C299.933,-175.939 300,-175.474 300,-175 " /><path id= "14" d=" M 200 -35 L 200 -25 " />
<path d="M280,-35 C280.003,-36.1397 279.599,-37.2748 278.877,-38.1568  C278.637,-38.4523 278.366,-38.717 278.065,-38.9508  C277.197,-39.6272 276.101,-40.0026 275,-40 " /><path d="M200,-35 C199.997,-36.1397 200.401,-37.2748 201.123,-38.1568  C201.363,-38.4523 201.634,-38.717 201.935,-38.9508  C202.803,-39.6273 203.9,-40.0027 205,-40 " /><path d="M280,-25 C280.003,-23.8603 279.599,-22.7252 278.877,-21.8432  C278.637,-21.5477 278.366,-21.283 278.065,-21.0492  C277.197,-20.3727 276.1,-19.9973 275,-20 " /><path d="M200,-25 C199.997,-23.8603 200.401,-22.7252 201.123,-21.8432  C201.363,-21.5477 201.634,-21.283 201.935,-21.0492  C202.803,-20.3727 203.9,-19.9973 205,-20 " /></g>
<g   fill="none"
   stroke="rgb(0, 0, 0)"
   stroke-linecap="butt"
   stroke-linejoin="miter"
   stroke-width="2.800000"
   transform="scale(1,-1)"
  >
<path id= "1" d=" M -40 120 L -40 140 " />
<path id= "2" d=" M 40 120 L 40 140 " />
<path id= "3" d=" M -40 140 L -34.641 140 " />
<path id= "4" d=" M 34.641 140 L 40 140 " />
<path id= "5" d=" M 40 -120 L 40 -140 " />
<path id= "6" d=" M -40 -120 L -40 -140 " />
<path id= "7" d=" M 40 -140 L 34.641 -140 " />
<path id= "8" d=" M -34.641 -140 L -40 -140 " />
<path id= "9" d=" M -40 120 L -40 -120 " />
<path d="M-40 -120 A40 40 0 0 1 1.53143e-14 -160" /><path d="M0 -160 A40 40 0 0 1 40 -120" /><path id= "12" d=" M 40 -120 L 40 120 " />
<path d="M40 120 A40 40 0 0 1 -40 120" /><circle cx ="0" cy ="-120" r ="5" /><circle cx ="0" cy ="-40" r ="5" /><circle cx ="0" cy ="40" r ="5" /><circle cx ="0" cy ="120" r ="5" /><path d="M280,-160 L280,-161.926  L280,-163.748  L280,-165.459  L280,-167.048  L280,-168.51  L280,-169.838  L280,-171.024  L280,-172.064  L280,-172.952  L280,-173.685  L280,-174.258  L280,-174.67  L280,-174.917  L280,-175 " /><path id= "19" d=" M 40 -40 L 200 -40 " />
<path id= "20" d=" M 245 -20 L 267.952 -20 " />
<path id= "21" d=" M 240 -5 L 240 -15 " />
<path d="M280 -5 A5 5 0 0 1 275 0" /><path d="M280 -15 A5 5 0 0 0 275 -20" /><path d="M275,-20 L274.78,-20  L274.122,-20  L273.036,-20  L271.534,-20  L269.635,-20  L267.364,-20  L264.749,-20  L261.822,-20  L258.621,-20  L255.186,-20  L251.56,-20  L247.788,-20  L243.919,-20  L240,-20 " /><path id= "25" d=" M 200 8.9e-16 L 40 8.9e-16 " />
<path id= "26" d=" M 240 -20 L 40 -20 " />
<path id= "27" d=" M 200 0 L 280 0 " />
<path id= "28" d=" M 280 0 L 280 120 " />
<path id= "29" d=" M 260 120 L 280 120 " />
<path id= "30" d=" M 200 20 L 260 120 " />
<path id= "31" d=" M 200 0 L 200 20 " />
<path id= "32" d=" M 200 -40 L 280 -40 " />
<path id= "33" d=" M 280 -40 L 280 -160 " />
<path id= "34" d=" M 260 -160 L 280 -160 " />
<path id= "35" d=" M 200 -40 L 200 -60 " />
<path id= "36" d=" M 200 -60 L 260 -160 " />
<path id= "37" d=" M 285 100 L 295 100 " />
<path id= "38" d=" M 285 -140 L 295 -140 " />
<path d="M285 140 A5 5 0 0 1 280 135" /><path d="M295 140 A5 5 0 0 0 300 135" /><path d="M280,135 L280,134.917  L280,134.67  L280,134.258  L280,133.685  L280,132.952  L280,132.064  L280,131.024  L280,129.838  L280,128.51  L280,127.048  L280,125.459  L280,123.748  L280,121.926  L280,120 " /><path d="M300,135 L300,134.78  L300,134.122  L300,133.036  L300,131.534  L300,129.635  L300,127.364  L300,124.749  L300,121.822  L300,118.621  L300,115.186  L300,111.56  L300,107.788  L300,103.919  L300,100 " /><path d="M280,-160 L280,-161.926  L280,-163.748  L280,-165.459  L280,-167.048  L280,-168.51  L280,-169.838  L280,-171.024  L280,-172.064  L280,-172.952  L280,-173.685  L280,-174.258  L280,-174.67  L280,-174.917  L280,-175 " /><path d="M280,-175 L280,-174.917  L280,-174.67  L280,-174.258  L280,-173.685  L280,-172.952  L280,-172.064  L280,-171.024  L280,-169.838  L280,-168.51  L280,-167.048  L280,-165.459  L280,-163.748  L280,-161.926  L280,-160 " /><path id= "45" d=" M 280 0 L 280 -40 " />
<path d="M300,-140 L300,-143.919  L300,-147.788  L300,-151.56  L300,-155.186  L300,-158.621  L300,-161.822  L300,-164.749  L300,-167.364  L300,-169.635  L300,-171.534  L300,-173.036  L300,-174.122  L300,-174.78  L300,-175 " /><path d="M300,-175 L300,-174.818  L300,-174.275  L300,-173.375  L300,-172.129  L300,-170.549  L300,-168.652  L300,-166.458  L300,-163.988  L300,-161.269  L300,-158.33  L300,-155.2  L300,-151.912  L300,-148.5  L300,-145 " /><path id= "48" d=" M 300 100 L 300 -140 " />
<path d="M300,-140 L300,-140.56  L300,-141.113  L300,-141.651  L300,-142.169  L300,-142.66  L300,-143.117  L300,-143.536  L300,-143.909  L300,-144.234  L300,-144.505  L300,-144.719  L300,-144.875  L300,-144.969  L300,-145 " /><path id= "50" d=" M 120 5 L 120 15 " />
<path d="M120 5 A5 5 0 0 1 125 7.10543e-15" /><path d="M120 15 A5 5 0 0 0 125 20" /><path d="M125,20 L125.22,20  L125.878,20  L126.964,20  L128.466,20  L130.365,20  L132.636,20  L135.251,20  L138.178,20  L141.379,20  L144.814,20  L148.44,20  L152.212,20  L156.081,20  L160,20 " /><path d="M200 5 A5 5 0 0 0 195 -7.99361e-15" /><path d="M160,20 L163.919,20  L167.788,20  L171.56,20  L175.186,20  L178.621,20  L181.822,20  L184.749,20  L187.364,20  L189.635,20  L191.534,20  L193.036,20  L194.122,20  L194.78,20  L195,20 " /><path d="M200 15 A5 5 0 0 1 195 20" /><path d="M195,20 L194.818,20  L194.275,20  L193.375,20  L192.129,20  L190.549,20  L188.652,20  L186.458,20  L183.988,20  L181.269,20  L178.33,20  L175.2,20  L171.912,20  L168.5,20  L165,20 " /><path d="M160,20 L160.56,20  L161.113,20  L161.651,20  L162.169,20  L162.66,20  L163.117,20  L163.536,20  L163.909,20  L164.234,20  L164.505,20  L164.719,20  L164.875,20  L164.969,20  L165,20 " /><path d="M155,20 Q155.016,20 155.031,20  Q155.078,20 155.125,20  Q155.203,20 155.281,20  Q155.388,20 155.495,20  Q155.631,20 155.766,20  Q155.929,20 156.091,20  Q156.278,20 156.464,20  Q156.674,20 156.883,20  Q157.111,20 157.34,20  Q157.585,20 157.831,20  Q158.09,20 158.349,20  Q158.618,20 158.887,20  Q159.438,20 160,20 " /><path d="M240,-20 L243.919,-20  L247.788,-20  L251.56,-20  L255.186,-20  L258.621,-20  L261.822,-20  L264.749,-20  L267.364,-20  L269.635,-20  L271.534,-20  L273.036,-20  L274.122,-20  L274.78,-20  L275,-20 " /><path d="M205,-20 L205.22,-20  L205.878,-20  L206.964,-20  L208.466,-20  L210.365,-20  L212.636,-20  L215.251,-20  L218.178,-20  L221.379,-20  L224.814,-20  L228.44,-20  L232.212,-20  L236.081,-20  L240,-20 " /><path id= "62" d=" M 120 5 L 120 15 " />
<path d="M40 5 A5 5 0 0 1 45 7.10543e-15" /><path d="M40 15 A5 5 0 0 0 45 20" /><path d="M45,20 L45.2201,20  L45.8775,20  L46.9641,20  L48.4661,20  L50.3647,20  L52.6359,20  L55.2513,20  L58.1779,20  L61.3789,20  L64.8141,20  L68.4402,20  L72.2118,20  L76.0812,20  L80,20 " /><path d="M120 5 A5 5 0 0 0 115 -7.99361e-15" /><path d="M80,20 L83.9188,20  L87.7882,20  L91.5598,20  L95.1859,20  L98.6211,20  L101.822,20  L104.749,20  L107.364,20  L109.635,20  L111.534,20  L113.036,20  L114.122,20  L114.78,20  L115,20 " /><path d="M120 15 A5 5 0 0 1 115 20" /><path d="M115,20 L114.818,20  L114.275,20  L113.375,20  L112.129,20  L110.549,20  L108.652,20  L106.458,20  L103.988,20  L101.269,20  L98.3295,20  L95.1995,20  L91.9116,20  L88.4999,20  L85,20 " /><path d="M80,20 L80.5598,20  L81.1126,20  L81.6514,20  L82.1694,20  L82.6602,20  L83.1174,20  L83.5355,20  L83.9092,20  L84.2336,20  L84.5048,20  L84.7194,20  L84.8746,20  L84.9686,20  L85,20 " /><path d="M75,20 Q75.0157,20 75.0314,20  Q75.0784,20 75.1254,20  Q75.203,20 75.2806,20  Q75.3879,20 75.4952,20  Q75.6308,20 75.7664,20  Q75.9286,20 76.0908,20  Q76.2777,20 76.4645,20  Q76.6735,20 76.8826,20  Q77.1112,20 77.3398,20  Q77.5852,20 77.8306,20  Q78.0896,20 78.3486,20  Q78.618,20 78.8874,20  Q79.4382,20 80,20 " /></g>
</g>



<g id="Ortho_0_1"
   transform="rotate(90,90.8212,67.3037) translate(90.8212,67.3037) scale(0.125,0.125)"
  >
<g   fill="none"
   stroke="rgb(0, 0, 0)"
   stroke-linecap="butt"
   stroke-linejoin="miter"
   stroke-width="2.800000"
   transform="scale(1,-1)"
  >
<path id= "1" d=" M 600 15 L 600 5 " />
<path d="M600,15 C599.997,16.1266 600.391,17.2488 601.098,18.1262  C601.336,18.4237 601.605,18.6904 601.905,18.9266  C602.777,19.6181 603.887,20.0028 605,20 " /><path d="M600,5 C599.997,3.8734 600.391,2.75118 601.098,1.87379  C601.336,1.57635 601.605,1.30955 601.905,1.07341  C602.777,0.381922 603.886,-0.00275636 605,1.75434e-14 " /><path id= "4" d=" M 1005 160 L 1015 160 " />
<path id= "5" d=" M 1005 -160 L 1015 -160 " />
<path d="M1005,-160 C1004.25,-160.001 1003.51,-159.831 1002.84,-159.507  C1002.16,-159.185 1001.56,-158.709 1001.1,-158.126  C1000.39,-157.249 999.997,-156.127 1000,-155 " /><path d="M1015,-160 C1015.75,-160.001 1016.49,-159.831 1017.16,-159.507  C1017.84,-159.185 1018.44,-158.709 1018.9,-158.126  C1019.61,-157.249 1020,-156.127 1020,-155 " /><path id= "8" d=" M 920 -5 L 920 -15 " />
<path d="M920,-5 C919.997,-3.8734 920.391,-2.75118 921.098,-1.87379  C921.336,-1.57635 921.605,-1.30955 921.905,-1.07341  C922.777,-0.381862 923.887,0.0028208 925,0 " /><path d="M920,-15 C919.997,-16.1266 920.391,-17.2488 921.098,-18.1262  C921.336,-18.4237 921.605,-18.6904 921.905,-18.9266  C922.777,-19.6181 923.887,-20.0028 925,-20 " /><path id= "11" d=" M -280 15 L -280 5 " />
<path d="M120,15 C120.003,16.1397 119.599,17.2748 118.877,18.1568  C118.637,18.4523 118.366,18.717 118.065,18.9508  C117.197,19.6273 116.1,20.0027 115,20 " /><path d="M120,5 C120.003,3.86026 119.599,2.72515 118.877,1.84324  C118.637,1.54768 118.366,1.28301 118.065,1.04922  C117.197,0.372755 116.101,-0.00263337 115,1.79319e-14 " /><path id= "14" d=" M -285 160 L -295 160 " />
<path id= "15" d=" M -285 -160 L -295 -160 " />
<path d="M-285,-160 C-283.913,-160.003 -282.829,-159.636 -281.967,-158.975  C-280.911,-158.176 -280.2,-156.941 -280.039,-155.627  C-280.013,-155.419 -280,-155.21 -280,-155 " /><path d="M-295,-160 C-296.087,-160.003 -297.171,-159.636 -298.033,-158.975  C-298.878,-158.333 -299.508,-157.414 -299.801,-156.395  C-299.933,-155.939 -300,-155.474 -300,-155 " /><path id= "18" d=" M -200 -5 L -200 -15 " />
<path d="M-200,-5 C-199.997,-3.86026 -200.401,-2.72515 -201.123,-1.84324  C-201.363,-1.54768 -201.634,-1.28301 -201.935,-1.04922  C-202.803,-0.372755 -203.899,0.00263337 -205,-7.49576e-15 " /><path d="M-200,-15 C-199.997,-16.1397 -200.401,-17.2748 -201.123,-18.1568  C-201.363,-18.4523 -201.634,-18.717 -201.935,-18.9508  C-202.803,-19.6273 -203.9,-20.0027 -205,-20 " /><path id= "21" d=" M 840 -15 L 840 -5 " />
<path id= "22" d=" M -40 -15 L -40 -5 " />
<path d="M-40,-15 C-40.0006,-15.7593 -39.8248,-16.5181 -39.4901,-17.1997  C-39.1681,-17.8583 -38.6987,-18.4442 -38.1262,-18.9022  C-37.2488,-19.6089 -36.1266,-20.003 -35,-20 " /><path d="M-40,-5 C-40.0006,-4.24066 -39.8248,-3.48194 -39.4901,-2.8003  C-39.1681,-2.14168 -38.6987,-1.55582 -38.1262,-1.09784  C-37.2489,-0.391209 -36.1268,0.00288343 -35.0003,-7.10543e-15 " /><path d="M120,35 L120,35 " /><path d="M120,25 L120,25 " /><path d="M120,-5 L120,-5 " /><path d="M120,-15 L120,-15 " /><path d="M440,35 L440,35 " /><path d="M440,25 L440,25 " /><path d="M120,-5 L120,-5 " /><path d="M120,-15 L120,-15 " /></g>
<g   fill="none"
   stroke="rgb(0, 0, 0)"
   stroke-linecap="butt"
   stroke-linejoin="miter"
   stroke-width="2.800000"
   transform="scale(1,-1)"
  >
<path id= "1" d=" M 920 -20 L 1000 -20 " />
<path id= "2" d=" M 1000 -20 L 1000 -140 " />
<path id= "3" d=" M 980 -140 L 1000 -140 " />
<path id= "4" d=" M 920 -20 L 920 -40 " />
<path id= "5" d=" M 920 -40 L 980 -140 " />
<path id= "6" d=" M 920 20 L 1000 20 " />
<path id= "7" d=" M 1000 20 L 1000 140 " />
<path id= "8" d=" M 980 140 L 1000 140 " />
<path id= "9" d=" M 920 40 L 980 140 " />
<path id= "10" d=" M 920 20 L 920 40 " />
<path id= "11" d=" M 960 15 L 960 5 " />
<path id= "12" d=" M 640 15 L 640 5 " />
<path d="M1000 15 A5 5 0 0 1 995 20" /><path d="M1000 5 A5 5 0 0 0 995 3.55271e-15" /><path d="M995,3.55271e-15 L994.78,3.55271e-15  L994.122,3.55271e-15  L993.036,7.10543e-15  L991.534,7.10543e-15  L989.635,7.10543e-15  L987.364,7.10543e-15  L984.749,1.06581e-14  L981.822,1.06581e-14  L978.621,1.06581e-14  L975.186,1.06581e-14  L971.56,1.06581e-14  L967.788,1.06581e-14  L963.919,1.06581e-14  L960,1.06581e-14 " /><path d="M640,20 L636.081,20  L632.212,20  L628.44,20  L624.814,20  L621.379,20  L618.178,20  L615.251,20  L612.636,20  L610.365,20  L608.466,20  L606.964,20  L605.878,20  L605.22,20  L605,20 " /><path id= "17" d=" M 920 20 L 640 20 " />
<path id= "18" d=" M 960 1.42109e-14 L 640 1.42109e-14 " />
<path id= "19" d=" M 1005 120 L 1015 120 " />
<path id= "20" d=" M 1005 -120 L 1015 -120 " />
<path d="M1005 160 A5 5 0 0 1 1000 155" /><path d="M1015 160 A5 5 0 0 0 1020 155" /><path d="M1000,155 L1000,154.917  L1000,154.67  L1000,154.258  L1000,153.685  L1000,152.952  L1000,152.064  L1000,151.024  L1000,149.838  L1000,148.51  L1000,147.048  L1000,145.459  L1000,143.748  L1000,141.926  L1000,140 " /><path d="M1020,155 L1020,154.78  L1020,154.122  L1020,153.036  L1020,151.534  L1020,149.635  L1020,147.364  L1020,144.749  L1020,141.822  L1020,138.621  L1020,135.186  L1020,131.56  L1020,127.788  L1020,123.919  L1020,120 " /><path d="M1000,-140 L1000,-141.926  L1000,-143.748  L1000,-145.459  L1000,-147.048  L1000,-148.51  L1000,-149.838  L1000,-151.024  L1000,-152.064  L1000,-152.952  L1000,-153.685  L1000,-154.258  L1000,-154.67  L1000,-154.917  L1000,-155 " /><path id= "26" d=" M 1000 20 L 1000 -20 " />
<path d="M1020,-120 L1020,-123.919  L1020,-127.788  L1020,-131.56  L1020,-135.186  L1020,-138.621  L1020,-141.822  L1020,-144.749  L1020,-147.364  L1020,-149.635  L1020,-151.534  L1020,-153.036  L1020,-154.122  L1020,-154.78  L1020,-155 " /><path id= "28" d=" M 1020 120 L 1020 -120 " />
<path d="M1000 -5 A5 5 0 0 1 995 0" /><path d="M995,0 L994.122,1.72934e-15  L991.534,3.37195e-15  L987.364,4.84549e-15  L981.822,6.07605e-15  L975.186,7.00193e-15  L967.788,7.57671e-15  L960,7.77156e-15  L952.212,7.57671e-15  L944.814,7.00193e-15  L938.178,6.07605e-15  L932.636,4.84549e-15  L928.466,3.37195e-15  L925.878,1.72934e-15  L925,2.8399e-28 " /><path d="M1000 -15 A5 5 0 0 0 995 -20" /><path id= "32" d=" M -200 -20 L -280 -20 " />
<path id= "33" d=" M -280 -20 L -280 -140 " />
<path id= "34" d=" M -260 -140 L -280 -140 " />
<path id= "35" d=" M -200 -40 L -260 -140 " />
<path id= "36" d=" M -200 -20 L -200 -40 " />
<path id= "37" d=" M -200 20 L -280 20 " />
<path id= "38" d=" M -280 20 L -280 140 " />
<path id= "39" d=" M -260 140 L -280 140 " />
<path id= "40" d=" M -200 20 L -200 40 " />
<path id= "41" d=" M -200 40 L -260 140 " />
<path id= "42" d=" M -240 15 L -240 5 " />
<path id= "43" d=" M 80 15 L 80 5 " />
<path id= "44" d=" M 80 20 L -200 20 " />
<path id= "45" d=" M 80 -7.10543e-15 L -240 -7.10543e-15 " />
<path d="M-280 15 A5 5 0 0 0 -275 20" /><path d="M-240,-3.55271e-15 L-243.919,-3.55271e-15  L-247.788,-3.55271e-15  L-251.56,-3.55271e-15  L-255.186,-3.55271e-15  L-258.621,-3.55271e-15  L-261.822,-3.55271e-15  L-264.749,-3.55271e-15  L-267.364,0  L-269.635,0  L-271.534,0  L-273.036,0  L-274.122,3.55271e-15  L-274.78,3.55271e-15  L-275,3.55271e-15 " /><path d="M-280 5 A5 5 0 0 1 -275 3.55271e-15" /><path d="M85,20 L88.4999,20  L91.9116,20  L95.1995,20  L98.3295,20  L101.269,20  L103.988,20  L106.458,20  L108.652,20  L110.549,20  L112.129,20  L113.375,20  L114.275,20  L114.818,20  L115,20 " /><path d="M115,20 L114.78,20  L114.122,20  L113.036,20  L111.534,20  L109.635,20  L107.364,20  L104.749,20  L101.822,20  L98.6211,20  L95.1859,20  L91.5598,20  L87.7882,20  L83.9188,20  L80,20 " /><path id= "51" d=" M -285 120 L -295 120 " />
<path id= "52" d=" M -285 -120 L -295 -120 " />
<path id= "53" d=" M -280 -20 L -280 20 " />
<path id= "54" d=" M -300 -120 L -300 120 " />
<path d="M-280,140 L-280,141.926  L-280,143.748  L-280,145.459  L-280,147.048  L-280,148.51  L-280,149.838  L-280,151.024  L-280,152.064  L-280,152.952  L-280,153.685  L-280,154.258  L-280,154.67  L-280,154.917  L-280,155 " /><path d="M-285 160 A5 5 0 0 0 -280 155" /><path d="M-300,120 L-300,123.919  L-300,127.788  L-300,131.56  L-300,135.186  L-300,138.621  L-300,141.822  L-300,144.749  L-300,147.364  L-300,149.635  L-300,151.534  L-300,153.036  L-300,154.122  L-300,154.78  L-300,155 " /><path d="M-295 160 A5 5 0 0 1 -300 155" /><path d="M-280,-155 L-280,-154.917  L-280,-154.67  L-280,-154.258  L-280,-153.685  L-280,-152.952  L-280,-152.064  L-280,-151.024  L-280,-149.838  L-280,-148.51  L-280,-147.048  L-280,-145.459  L-280,-143.748  L-280,-141.926  L-280,-140 " /><path id= "60" d=" M -280 20 L -280 15 " />
<path id= "61" d=" M -280 5 L -280 -5 " />
<path id= "62" d=" M -280 -15 L -280 -20 " />
<path d="M-300,-155 L-300,-154.78  L-300,-154.122  L-300,-153.036  L-300,-151.534  L-300,-149.635  L-300,-147.364  L-300,-144.749  L-300,-141.822  L-300,-138.621  L-300,-135.186  L-300,-131.56  L-300,-127.788  L-300,-123.919  L-300,-120 " /><path id= "64" d=" M -300 115 L -300 -35 " />
<path id= "65" d=" M -300 -45 L -300 -115 " />
<path d="M-300,115 Q-300,115.016 -300,115.031  Q-300,115.078 -300,115.125  Q-300,115.203 -300,115.281  Q-300,115.388 -300,115.495  Q-300,115.631 -300,115.766  Q-300,115.929 -300,116.091  Q-300,116.278 -300,116.464  Q-300,116.674 -300,116.883  Q-300,117.111 -300,117.34  Q-300,117.585 -300,117.831  Q-300,118.09 -300,118.349  Q-300,118.618 -300,118.887  Q-300,119.438 -300,120 " /><path d="M-300,35 L-300,35.1254  L-300,35.4952  L-300,36.0908  L-300,36.8826  L-300,37.8306  L-300,38.8874  L-300,40  L-300,41.1126  L-300,42.1694  L-300,43.1174  L-300,43.9092  L-300,44.5048  L-300,44.8746  L-300,45 " /><path d="M-300,-45 L-300,-44.8746  L-300,-44.5048  L-300,-43.9092  L-300,-43.1174  L-300,-42.1694  L-300,-41.1126  L-300,-40  L-300,-38.8874  L-300,-37.8306  L-300,-36.8826  L-300,-36.0908  L-300,-35.4952  L-300,-35.1254  L-300,-35 " /><path d="M-300,-120 L-300,-119.44  L-300,-118.887  L-300,-118.349  L-300,-117.831  L-300,-117.34  L-300,-116.883  L-300,-116.464  L-300,-116.091  L-300,-115.766  L-300,-115.495  L-300,-115.281  L-300,-115.125  L-300,-115.031  L-300,-115 " /><path id= "70" d=" M -280 -5 L -280 -15 " />
<path d="M-280 -5 A5 5 0 0 0 -275 0" /><path d="M-205,0 L-205.878,0  L-208.466,0  L-212.636,0  L-218.178,0  L-224.814,0  L-232.212,0  L-240,0  L-247.788,0  L-255.186,0  L-261.822,0  L-267.364,0  L-271.534,0  L-274.122,0  L-275,0 " /><path d="M-280 -15 A5 5 0 0 1 -275 -20" /><path id= "74" d=" M 800 -15 L 800 -5 " />
<path id= "75" d=" M 0 -15 L 0 -5 " />
<path id= "76" d=" M 0 -20 L 120 -20 " />
<path id= "77" d=" M 520 -20 L 800 -20 " />
<path id= "78" d=" M 0 1.77636e-14 L 120 1.77636e-14 " />
<path id= "79" d=" M 520 1.77636e-14 L 800 1.77636e-14 " />
<path d="M800,-20 L803.919,-20  L807.788,-20  L811.56,-20  L815.186,-20  L818.621,-20  L821.822,-20  L824.749,-20  L827.364,-20  L829.635,-20  L831.534,-20  L833.036,-20  L834.122,-20  L834.78,-20  L835,-20 " /><path d="M840 -15 A5 5 0 0 0 835 -20" /><path d="M840 -5 A5 5 0 0 1 835 7.10543e-15" /><path d="M-5,-20 L-8.49994,-20  L-11.9116,-20  L-15.1995,-20  L-18.3295,-20  L-21.2692,-20  L-23.9879,-20  L-26.4575,-20  L-28.6523,-20  L-30.5494,-20  L-32.1293,-20  L-33.3754,-20  L-34.2748,-20  L-34.8182,-20  L-35,-20 " /><path d="M-35,-20 L-34.7799,-20  L-34.1225,-20  L-33.0359,-20  L-31.5339,-20  L-29.6353,-20  L-27.3641,-20  L-24.7487,-20  L-21.8221,-20  L-18.6211,-20  L-15.1859,-20  L-11.5598,-20  L-7.78823,-20  L-3.91876,-20  L9.10383e-15,-20 " /><path id= "85" d=" M 120 140 L 120 160 " />
<path id= "86" d=" M 200 140 L 200 160 " />
<path id= "87" d=" M 120 160 L 125.359 160 " />
<path id= "88" d=" M 194.641 160 L 200 160 " />
<path id= "89" d=" M 200 -100 L 200 -120 " />
<path id= "90" d=" M 120 -100 L 120 -120 " />
<path id= "91" d=" M 200 -120 L 194.641 -120 " />
<path id= "92" d=" M 125.359 -120 L 120 -120 " />
<path id= "93" d=" M 120 140 L 120 -100 " />
<path d="M120 -100 A40 40 0 0 1 160 -140" /><path d="M160 -140 A40 40 0 0 1 200 -100" /><path id= "96" d=" M 200 -100 L 200 140 " />
<path d="M200 140 A40 40 0 0 1 120 140" /><circle cx ="160" cy ="-100" r ="5" /><circle cx ="160" cy ="-20" r ="5" /><circle cx ="160" cy ="60" r ="5" /><circle cx ="160" cy ="140" r ="5" /><path id= "102" d=" M 440 40 L 200 40 " />
<path id= "103" d=" M 440 20 L 200 20 " />
<path id= "104" d=" M 520 -100 L 520 -120 " />
<path id= "105" d=" M 440 -100 L 440 -120 " />
<path id= "106" d=" M 520 -120 L 514.641 -120 " />
<path id= "107" d=" M 445.359 -120 L 440 -120 " />
<path id= "108" d=" M 440 140 L 440 160 " />
<path id= "109" d=" M 520 140 L 520 160 " />
<path id= "110" d=" M 440 160 L 445.359 160 " />
<path id= "111" d=" M 514.641 160 L 520 160 " />
<path id= "112" d=" M 440 140 L 440 -100 " />
<path d="M440 -100 A40 40 0 0 1 480 -140" /><path d="M480 -140 A40 40 0 0 1 520 -100" /><path id= "115" d=" M 520 -100 L 520 140 " />
<path d="M520 140 A40 40 0 0 1 440 140" /><circle cx ="480" cy ="-100" r ="5" /><circle cx ="480" cy ="-20" r ="5" /><circle cx ="480" cy ="60" r ="5" /><circle cx ="480" cy ="140" r ="5" /><path id= "121" d=" M 440 7.99e-15 L 200 7.99e-15 " />
<path id= "122" d=" M 440 -20 L 200 -20 " />
</g>
</g>



<g id="Ortho_1_1"
   transform="rotate(120,297.578,106.654) translate(297.578,106.654) scale(0.125,0.125)"
  >
<g   fill="none"
   stroke="rgb(0, 0, 0)"
   stroke-linecap="butt"
   stroke-linejoin="miter"
   stroke-width="2.800000"
   transform="scale(1,-1)"
  >
<path id= "1" d=" M 479.797 -230.413 L 646.467 -326.64 " />
<path id= "2" d=" M 412.548 -249.031 L 412.548 -257.196 " />
<path d="M680.894,-413.01 C676.161,-413.161 671.386,-412.793 666.866,-411.927  C661.198,-410.843 655.942,-408.979 651.574,-406.455 " /><path d="M412.548,-249.031 C412.544,-246.06 413.357,-243.107 414.854,-240.424  C415.832,-238.665 417.097,-237.014 418.601,-235.494  C420.451,-233.623 422.665,-231.948 425.168,-230.489  C428.268,-228.682 431.815,-227.209 435.648,-226.114  C440.873,-224.618 446.632,-223.835 452.401,-223.824  C456.537,-223.815 460.675,-224.199 464.616,-224.962  C470.242,-226.049 475.457,-227.905 479.797,-230.413 " /><path d="M425.3,-275.815 C420.686,-273.153 417.036,-269.746 414.833,-265.766  C413.349,-263.093 412.545,-260.154 412.548,-257.196 " /><path id= "6" d=" M 651.574 -406.455 L 425.3 -275.815 " />
<path id= "7" d=" M 730.642 -277.669 L 737.713 -281.751 " />
<path id= "8" d=" M 747.462 -498.063 L 747.462 -302.104 " />
<path id= "9" d=" M 690.642 -542.91 L 697.713 -546.993 " />
<path d="M730.642,-277.669 C728.071,-276.18 725.107,-275.407 722.035,-275.362  C717.499,-275.29 712.74,-276.747 708.142,-279.402 " /><path d="M747.462,-302.104 C747.463,-296.818 746.356,-291.987 744.046,-288.104  C742.468,-285.443 740.306,-283.243 737.713,-281.751 " /><path d="M708.142,-279.402 C705.106,-281.155 702.132,-283.434 699.334,-286.129  C695.354,-289.959 691.735,-294.637 688.804,-299.721  C685.885,-304.775 683.654,-310.219 682.328,-315.553  C681.385,-319.343 680.893,-323.076 680.894,-326.599 " /><path d="M680.894,-522.558 C680.892,-527.884 682.017,-532.749 684.363,-536.647  C685.936,-539.268 688.079,-541.435 690.642,-542.91 " /><path d="M697.713,-546.993 C700.285,-548.482 703.249,-549.255 706.321,-549.299  C708.333,-549.332 710.395,-549.062 712.464,-548.52  C715.009,-547.853 717.567,-546.773 720.081,-545.335  C723.196,-543.554 726.246,-541.219 729.11,-538.447  C733.018,-534.669 736.575,-530.074 739.47,-525.083  C741.546,-521.506 743.282,-517.73 744.592,-513.935  C746.464,-508.52 747.464,-503.075 747.462,-498.063 " /><path id= "15" d=" M 680.894 -326.599 L 680.894 -522.558 " />
<path id= "16" d=" M 638.823 -399.093 L 638.823 -404.166 " />
<path d="M680.894,-429.34 C674.281,-429.553 667.589,-428.744 661.616,-426.995  C654.85,-425.019 649.015,-421.862 644.941,-417.77  C643.416,-416.239 642.134,-414.575 641.144,-412.801  C639.637,-410.11 638.819,-407.147 638.823,-404.166 " /><path id= "18" d=" M -209.706 104.744 L -209.706 102.062 " />
<path id= "19" d=" M 29.3198 -47.1962 L -196.954 83.4433 " />
<path id= "20" d=" M 96.5685 -20.4124 L 96.5685 -28.5774 " />
<path d="M-196.954,83.4433 C-201.533,86.0853 -205.162,89.4599 -207.37,93.4016  C-208.886,96.099 -209.71,99.0711 -209.706,102.062 " /><path d="M83.8173,-1.7936 C88.4308,-4.45595 92.0814,-7.86265 94.284,-11.8433  C95.7677,-14.516 96.5724,-17.4552 96.5685,-20.4124 " /><path d="M96.5685,-28.5774 Q96.5686,-29.3297 96.5008,-30.0799 " /><path d="M52.6128,-53.6651 C49.8603,-53.4984 47.1368,-53.157 44.5005,-52.647  C38.8751,-51.5602 33.6596,-49.7038 29.3198,-47.1962 " /><path id= "25" d=" M -115.208 113.114 L 83.8173 -1.7936 " />
<path id= "26" d=" M -181.525 248.971 L -188.597 253.054 " />
<path id= "27" d=" M -238.345 8.16497 L -238.345 204.124 " />
<path id= "28" d=" M -226.274 -13.5282 L -228.597 -12.1874 " />
<path d="M-238.345,204.124 C-238.346,207.63 -237.859,211.345 -236.924,215.116  C-235.597,220.477 -233.355,225.951 -230.418,231.031  C-227.501,236.086 -223.902,240.74 -219.945,244.555  C-217.135,247.267 -214.147,249.559 -211.097,251.32 " /><path d="M-181.525,248.971 C-178.95,247.489 -176.799,245.309 -175.224,242.67  C-175.09,242.446 -174.959,242.219 -174.833,241.989 " /><path d="M-211.097,251.32 C-206.519,253.964 -201.782,255.42 -197.264,255.362  C-194.17,255.326 -191.185,254.553 -188.597,253.054 " /><path d="M-228.597,-12.1874 C-231.172,-10.705 -233.323,-8.52472 -234.898,-5.88641  C-237.229,-1.9948 -238.346,2.85559 -238.345,8.16497 " /><path id= "33" d=" M -209.706 93.8971 L -209.706 85.7321 " />
<path d="M-209.706,93.8971 C-209.706,95.2683 -209.535,96.6394 -209.202,97.9796 " /><path d="M-158.846,61.4416 C-163.473,60.6432 -168.339,60.3624 -173.13,60.6144  C-177.921,60.8643 -182.636,61.6469 -186.971,62.9203  C-190.736,64.0248 -194.218,65.4967 -197.261,67.2922  C-201.708,69.9147 -205.234,73.239 -207.39,77.1073  C-208.893,79.7951 -209.71,82.7544 -209.706,85.7321 " /><path id= "36" d=" M -27.2487 -30.8663 L 32.4264 -65.3197 " />
<path id= "37" d=" M 325.269 -234.393 L 538.437 -357.465 " />
<path id= "38" d=" M -40 -12.2474 L -40 -7.17439 " />
<path d="M538.437,-357.465 C542.792,-359.981 548.029,-361.842 553.677,-362.927  C557.559,-363.675 561.63,-364.055 565.702,-364.053  C569.363,-364.053 573.023,-363.744 576.545,-363.137 " /><path d="M-40,-12.2474 C-40.0039,-15.2189 -39.1913,-18.172 -37.694,-20.8553  C-35.4891,-24.8194 -31.8473,-28.2125 -27.2487,-30.8663 " /><path id= "41" d=" M 441.689 -224.741 L 379.411 -188.785 " />
<path id= "42" d=" M 290.519 -137.463 L 153.137 -58.1453 " />
<path id= "43" d=" M 102.278 -28.7817 L 96.5685 -25.4855 " />
<path id= "44" d=" M 85.8883 -34.4535 L -15.7279 -93.1216 " />
<path id= "45" d=" M 153.137 -61.2372 L 153.137 -53.0723 " />
<path d="M-58.6396,-184.391 C-53.9072,-184.542 -49.1321,-184.174 -44.6119,-183.308  C-38.9442,-182.224 -33.6882,-180.36 -29.3198,-177.836 " /><path d="M140.386,-79.8561 C144.999,-77.1937 148.65,-73.787 150.853,-69.8064  C152.336,-67.1336 153.141,-64.1944 153.137,-61.2372 " /><path d="M153.137,-53.0723 C153.141,-50.1008 152.328,-47.1477 150.831,-44.4645  C149.853,-42.7057 148.589,-41.055 147.084,-39.5347  C145.234,-37.6642 143.021,-35.9884 140.517,-34.5298  C137.418,-32.7232 133.871,-31.2498 130.038,-30.1548  C124.812,-28.6591 119.054,-27.8762 113.285,-27.8652  C109.148,-27.8553 105.011,-28.2397 101.069,-29.0027  C95.4437,-30.0895 90.2281,-31.9458 85.8883,-34.4535 " /><path id= "49" d=" M -29.3198 -177.836 L -18.2104 -171.422 " />
<path id= "50" d=" M 71.4028 -119.683 L 140.386 -79.8561 " />
<path id= "51" d=" M -68.3883 -297.961 L -75.4594 -302.044 " />
<path id= "52" d=" M -125.208 -57.1548 L -125.208 -253.114 " />
<path id= "53" d=" M -108.388 -32.72 L -115.459 -36.8024 " />
<path d="M-125.208,-253.114 C-125.208,-256.62 -124.722,-260.334 -123.787,-264.106  C-122.46,-269.467 -120.218,-274.941 -117.281,-280.021  C-114.363,-285.076 -110.765,-289.73 -106.808,-293.545  C-103.998,-296.257 -101.01,-298.549 -97.9594,-300.31 " /><path d="M-68.3883,-297.961 C-65.813,-296.479 -63.6619,-294.299 -62.0867,-291.66  C-59.7562,-287.769 -58.6385,-282.918 -58.6396,-277.609 " /><path d="M-97.9594,-300.31 C-93.3823,-302.954 -88.6449,-304.41 -84.1273,-304.351  C-81.0333,-304.316 -78.0477,-303.543 -75.4594,-302.044 " /><path d="M-58.6396,-81.6497 C-58.6379,-76.7002 -59.6129,-71.329 -61.4396,-65.9808  C-62.7458,-62.1522 -64.4863,-58.3407 -66.5745,-54.7291  C-68.6325,-51.1675 -71.0273,-47.8023 -73.6485,-44.7932  C-77.477,-40.395 -81.7815,-36.7671 -86.2087,-34.2706  C-88.6409,-32.8979 -91.1122,-31.8619 -93.5718,-31.2103  C-95.658,-30.6575 -97.7376,-30.3816 -99.7669,-30.4129  C-102.844,-30.4557 -105.813,-31.2286 -108.388,-32.72 " /><path d="M-115.459,-36.8024 C-118.035,-38.2848 -120.186,-40.4651 -121.761,-43.1034  C-124.092,-46.995 -125.209,-51.8454 -125.208,-57.1548 " /><path id= "59" d=" M -58.6396 -277.609 L -58.6396 -81.6497 " />
<path id= "60" d=" M 379.539 -166.863 L 379.539 -175.028 " />
<path id= "61" d=" M -0.33161 -113.863 L 344.814 -141.868 " />
<path d="M344.814,-141.868 C349.054,-142.212 353.2,-142.973 357.045,-144.122  C360.659,-145.201 364.006,-146.619 366.949,-148.337  C370.254,-150.267 373.053,-152.577 375.175,-155.213  C375.933,-156.154 376.6,-157.134 377.176,-158.153  C378.709,-160.863 379.543,-163.853 379.539,-166.863 " /><path d="M379.539,-175.028 C379.539,-176.369 379.376,-177.71 379.056,-179.022 " /><path d="M379.056,-179.022 C378.337,-181.983 376.824,-184.776 374.7,-187.249  C372.675,-189.61 370.095,-191.697 367.093,-193.468  C364.011,-195.287 360.479,-196.773 356.658,-197.882  C353.197,-198.888 349.499,-199.582 345.715,-199.942  C341.931,-200.303 338.06,-200.33 334.263,-200.022 " /><path id= "65" d=" M 334.263 -200.022 L 183.866 -187.818 " />
<path id= "66" d=" M 101.71 -181.152 L -58.6396 -168.141 " />
<path id= "67" d=" M 261.842 -194.145 L 210.546 -223.761 " />
<path id= "68" d=" M 379.411 -191.877 L 379.411 -183.712 " />
<path d="M167.635,-315.031 C172.367,-315.181 177.142,-314.814 181.662,-313.947  C187.33,-312.864 192.586,-310.999 196.954,-308.475 " /><path d="M366.66,-210.496 C371.274,-207.833 374.924,-204.426 377.127,-200.446  C378.61,-197.773 379.415,-194.834 379.411,-191.877 " /><path d="M379.411,-183.712 C379.412,-182.334 379.239,-180.956 378.902,-179.61 " /><path id= "72" d=" M 196.954 -308.475 L 366.66 -210.496 " />
<path id= "73" d=" M 157.886 -428.601 L 150.815 -432.683 " />
<path id= "74" d=" M 101.066 -187.794 L 101.066 -383.753 " />
<path id= "75" d=" M 117.886 -163.359 L 110.815 -167.442 " />
<path d="M101.066,-383.753 C101.066,-387.259 101.553,-390.974 102.487,-394.745  C103.814,-400.106 106.056,-405.58 108.993,-410.66  C111.911,-415.715 115.51,-420.369 119.466,-424.184  C122.276,-426.896 125.264,-429.189 128.315,-430.95 " /><path d="M157.886,-428.601 C160.461,-427.118 162.612,-424.938 164.187,-422.3  C166.518,-418.408 167.636,-413.558 167.635,-408.248 " /><path d="M128.315,-430.95 C132.892,-433.593 137.629,-435.05 142.147,-434.991  C145.241,-434.955 148.226,-434.182 150.815,-432.683 " /><path d="M167.635,-212.289 C167.636,-207.34 166.661,-201.968 164.835,-196.62  C163.528,-192.792 161.788,-188.98 159.7,-185.369  C157.642,-181.807 155.247,-178.442 152.626,-175.433  C148.797,-171.034 144.493,-167.407 140.065,-164.91  C137.633,-163.537 135.162,-162.501 132.702,-161.85  C130.616,-161.297 128.537,-161.021 126.507,-161.052  C123.43,-161.095 120.461,-161.868 117.886,-163.359 " /><path d="M110.815,-167.442 C108.239,-168.924 106.088,-171.105 104.513,-173.743  C102.183,-177.634 101.065,-182.485 101.066,-187.794 " /><path id= "81" d=" M 167.635 -408.248 L 167.635 -212.289 " />
<path id= "82" d=" M 266.274 -268.453 L 266.274 -273.526 " />
<path id= "83" d=" M 208.168 -220.557 L 212.132 -222.846 " />
<path d="M266.274,-273.526 C266.278,-276.498 265.465,-279.451 263.968,-282.134  C261.763,-286.098 258.121,-289.491 253.523,-292.145 " /><path d="M253.523,-292.145 C250.487,-293.898 247.027,-295.334 243.293,-296.41  C237.992,-297.941 232.136,-298.736 226.274,-298.734 " /><path id= "86" d=" M 101.066 -235.588 L 0 -177.238 " />
<path id= "87" d=" M 209.706 -270.845 L 209.706 -273.526 " />
<path d="M196.954,-292.145 C192.497,-294.721 187.113,-296.61 181.313,-297.683  C176.897,-298.502 172.244,-298.847 167.635,-298.701 " /><path d="M209.706,-273.526 C209.71,-276.498 208.897,-279.451 207.4,-282.134  C205.195,-286.098 201.553,-289.491 196.954,-292.145 " /><path id= "90" d=" M 322.843 -235.793 L 322.843 -240.866 " />
<path id= "91" d=" M 108.995 -97.9796 L 158.881 -126.782 " />
<path d="M322.843,-240.866 C322.847,-243.838 322.034,-246.791 320.537,-249.474  C318.332,-253.438 314.69,-256.832 310.091,-259.485 " /><path d="M310.091,-259.485 C305.736,-262.002 300.499,-263.862 294.851,-264.948  C290.969,-265.695 286.898,-266.075 282.826,-266.074  C279.165,-266.073 275.506,-265.764 271.983,-265.157 " /></g>
<g   fill="none"
   stroke="rgb(0, 0, 0)"
   stroke-linecap="butt"
   stroke-linejoin="miter"
   stroke-width="2.800000"
   transform="scale(1,-1)"
  >
<path id= "1" d=" M 638.467 -398.888 L 622.254 -408.248 " />
<path id= "2" d=" M 622.254 -408.248 L 678.823 -440.908 " />
<path id= "3" d=" M 680.894 -439.712 L 678.823 -440.908 " />
<path id= "4" d=" M 678.823 -440.908 L 678.823 -538.888 " />
<path id= "5" d=" M 683.95 -535.927 L 678.823 -538.888 " />
<path id= "6" d=" M 664.68 -530.723 L 678.823 -538.888 " />
<path id= "7" d=" M 622.254 -408.248 L 622.254 -424.578 " />
<path id= "8" d=" M 622.254 -424.578 L 664.68 -530.723 " />
<path id= "9" d=" M 622.254 -375.588 L 678.823 -408.248 " />
<path id= "10" d=" M 678.823 -408.248 L 678.823 -310.269 " />
<path id= "11" d=" M 664.68 -302.104 L 678.823 -310.269 " />
<path id= "12" d=" M 622.254 -359.258 L 664.68 -302.104 " />
<path id= "13" d=" M 622.254 -375.588 L 622.254 -359.258 " />
<path id= "14" d=" M 678.823 -408.248 L 680.894 -407.053 " />
<path id= "15" d=" M 735.391 -280.411 L 735.391 -277.609 " />
<path id= "16" d=" M 678.823 -310.269 L 685.418 -306.461 " />
<path id= "17" d=" M 732.965 -279.01 L 735.391 -277.609 " />
<path id= "18" d=" M 664.68 -302.104 L 678.823 -293.939 " />
<path id= "19" d=" M 721.249 -269.444 L 735.391 -277.609 " />
<path id= "20" d=" M 707.107 -277.609 L 721.249 -269.444 " />
<path id= "21" d=" M 678.823 -293.939 L 707.107 -277.609 " />
<path id= "22" d=" M 650.538 -396.001 L 650.538 -404.166 " />
<path id= "23" d=" M 424.264 -265.361 L 424.264 -273.526 " />
<path d="M456.084 -242.908 A5 2.88675 180 0 0 457.548 -244.949" />
<path d="M457.548 -244.949 A5 2.88675 180 0 0 456.084 -246.99" />
<path d="M456.084 -246.99 A5 2.88675 180 0 0 449.013 -246.99" />
<path d="M449.013 -246.99 A5 2.88675 180 0 0 447.548 -244.949" />
<path d="M447.548 -244.949 A5 2.88675 180 0 0 456.084 -242.908" />
<path d="M625.79 -344.97 A5 2.88675 180 0 0 617.254 -342.929" />
<path d="M617.254 -342.929 A5 2.88675 180 0 0 627.254 -342.929" />
<path d="M627.254 -342.929 A5 2.88675 180 0 0 625.79 -344.97" />
<path d="M569.221 -312.31 A5 2.88675 180 0 0 560.685 -310.269" />
<path d="M560.685 -310.269 A5 2.88675 180 0 0 570.685 -310.269" />
<path d="M570.685 -310.269 A5 2.88675 180 0 0 569.221 -312.31" />
<path d="M512.652 -279.65 A5 2.88675 180 0 0 504.117 -277.609" />
<path d="M504.117 -277.609 A5 2.88675 180 0 0 514.117 -277.609" />
<path d="M514.117 -277.609 A5 2.88675 180 0 0 512.652 -279.65" />
<path id= "38" d=" M 682.358 -328.64 L 689.429 -332.722 " />
<path id= "39" d=" M 682.358 -524.599 L 689.429 -528.682 " />
<path d="M721.249 -314.351 A5 2.88675 -120 0 1 718.749 -322.764" />
<path d="M718.749 -322.764 A5 2.88675 -120 0 1 723.749 -314.104" />
<path d="M723.749 -314.104 A5 2.88675 -120 0 1 721.249 -314.351" />
<path d="M721.249 -379.671 A5 2.88675 -120 0 1 718.749 -388.084" />
<path d="M718.749 -388.084 A5 2.88675 -120 0 1 723.749 -379.423" />
<path d="M723.749 -379.423 A5 2.88675 -120 0 1 721.249 -379.671" />
<path d="M721.249 -444.991 A5 2.88675 -120 0 1 718.749 -453.403" />
<path d="M718.749 -453.403 A5 2.88675 -120 0 1 723.749 -444.743" />
<path d="M723.749 -444.743 A5 2.88675 -120 0 1 721.249 -444.991" />
<path d="M721.249 -510.31 A5 2.88675 -120 0 1 718.749 -518.723" />
<path d="M718.749 -518.723 A5 2.88675 -120 0 1 723.749 -510.063" />
<path d="M723.749 -510.063 A5 2.88675 -120 0 1 721.249 -510.31" />
<path id= "52" d=" M -169.706 48.9898 L -226.274 81.6497 " />
<path id= "53" d=" M -226.274 81.6497 L -226.274 -16.3299 " />
<path id= "54" d=" M -212.132 -24.4949 L -226.274 -16.3299 " />
<path id= "55" d=" M -169.706 32.6599 L -212.132 -24.4949 " />
<path id= "56" d=" M -169.706 48.9898 L -169.706 32.6599 " />
<path id= "57" d=" M -169.706 48.9898 L -153.492 58.3505 " />
<path id= "58" d=" M -226.274 81.6497 L -209.706 91.2155 " />
<path id= "59" d=" M -212.132 -24.4949 L -197.99 -16.3299 " />
<path id= "60" d=" M -169.706 4.79616e-14 L -155.563 8.16497 " />
<path id= "61" d=" M -197.99 -16.3299 L -169.706 4.26326e-14 " />
<path id= "62" d=" M -169.706 32.6599 L -155.563 40.8248 " />
<path id= "63" d=" M -155.563 40.8248 L -197.99 -16.3299 " />
<path id= "64" d=" M -155.563 40.8248 L -139.35 50.1855 " />
<path id= "65" d=" M -128.865 44.1318 L -155.563 8.16497 " />
<path id= "66" d=" M -134.522 47.3978 L -169.706 4.26326e-14 " />
<path id= "67" d=" M -169.706 21.7732 L -169.706 4.26326e-14 " />
<path id= "68" d=" M -155.563 236.784 L -169.706 244.949 " />
<path id= "69" d=" M -113.137 130.639 L -155.563 236.784 " />
<path id= "70" d=" M -113.137 114.31 L -113.137 130.639 " />
<path id= "71" d=" M -113.137 114.31 L -169.706 81.6497 " />
<path id= "72" d=" M -169.706 81.6497 L -226.274 114.31 " />
<path id= "73" d=" M -226.274 114.31 L -226.274 212.289 " />
<path id= "74" d=" M -169.706 244.949 L -226.274 212.289 " />
<path id= "75" d=" M -155.563 236.784 L -169.706 228.619 " />
<path id= "76" d=" M -212.132 204.124 L -226.274 212.289 " />
<path id= "77" d=" M -197.99 212.289 L -212.132 204.124 " />
<path id= "78" d=" M -169.706 228.619 L -197.99 212.289 " />
<path id= "79" d=" M -113.137 130.639 L -127.279 122.474 " />
<path id= "80" d=" M -127.279 122.474 L -169.706 228.619 " />
<path id= "81" d=" M -127.279 122.474 L -155.563 106.145 " />
<path id= "82" d=" M -155.563 106.145 L -169.706 97.9796 " />
<path id= "83" d=" M -169.706 81.6497 L -169.706 97.9796 " />
<path id= "84" d=" M -169.706 97.9796 L -212.132 204.124 " />
<path d="M-166.17 132.681 A5 2.88675 180 0 0 -164.706 130.639" />
<path d="M-164.706 130.639 A5 2.88675 180 0 0 -164.978 129.699" />
<path d="M-187.383 202.083 A5 2.88675 60 0 0 -181.348 208.454" />
<path d="M-181.348 208.454 A5 2.88675 60 0 0 -186.348 199.794" />
<path d="M-186.348 199.794 A5 2.88675 60 0 0 -187.383 202.083" />
<path id= "90" d=" M -155.563 106.145 L -197.99 212.289 " />
<path id= "91" d=" M -169.706 146.969 L -169.706 228.619 " />
<path id= "92" d=" M -169.706 146.969 L -171.473 145.949 " />
<path id= "93" d=" M -127.279 122.474 L -169.706 146.969 " />
<path id= "94" d=" M -197.99 93.8971 L -197.99 85.7321 " />
<path id= "95" d=" M 28.2843 -36.7423 L 28.2843 -44.9073 " />
<path d="M53.033 -18.3712 A5 2.88675 180 0 0 51.5685 -16.3299" />
<path d="M51.5685 -16.3299 A5 2.88675 180 0 0 53.033 -14.2887" />
<path d="M53.033 -14.2887 A5 2.88675 180 0 0 60.1041 -14.2887" />
<path d="M60.1041 -14.2887 A5 2.88675 180 0 0 61.5685 -16.3299" />
<path d="M61.5685 -16.3299 A5 2.88675 180 0 0 53.033 -18.3712" />
<path d="M-116.673 83.6909 A5 2.88675 180 0 0 -108.137 81.6497" />
<path d="M-108.137 81.6497 A5 2.88675 180 0 0 -118.137 81.6497" />
<path d="M-118.137 81.6497 A5 2.88675 180 0 0 -116.673 83.6909" />
<path d="M-60.1041 51.031 A5 2.88675 180 0 0 -51.5685 48.9898" />
<path d="M-51.5685 48.9898 A5 2.88675 180 0 0 -61.5685 48.9898" />
<path d="M-61.5685 48.9898 A5 2.88675 180 0 0 -60.1041 51.031" />
<path d="M-3.53553 18.3712 A5 2.88675 180 0 0 5 16.3299" />
<path d="M5 16.3299 A5 2.88675 180 0 0 -5 16.3299" />
<path d="M-5 16.3299 A5 2.88675 180 0 0 -3.53553 18.3712" />
<path id= "110" d=" M -229.81 198 L -236.881 202.083 " />
<path id= "111" d=" M -229.81 2.04124 L -236.881 6.12372 " />
<path id= "112" d=" M 537.401 -355.176 L 537.401 -347.011 " />
<path id= "113" d=" M -28.2843 -28.5774 L -28.2843 -20.4124 " />
<path d="M173.241 -100.021 A5 2.88675 -5.84305e-15 0 1 174.706 -97.9796" />
<path d="M174.706 -97.9796 A5 2.88675 -5.84305e-15 0 1 164.706 -97.9796" />
<path d="M164.706 -97.9796 A5 2.88675 -5.84305e-15 0 1 173.241 -100.021" />
<path d="M230.017 -132.554 A5 2.88675 -5.84305e-15 0 1 231.274 -130.639" />
<path d="M231.274 -130.639 A5 2.88675 -5.84305e-15 0 1 221.274 -130.639" />
<path d="M221.274 -130.639 A5 2.88675 -5.84305e-15 0 1 221.763 -131.884" />
<path d="M399.515 -230.66 A5 2.88675 -5.84305e-15 0 1 400.98 -228.619" />
<path d="M400.98 -228.619 A5 2.88675 -5.84305e-15 0 1 390.98 -228.619" />
<path d="M390.98 -228.619 A5 2.88675 -5.84305e-15 0 1 399.515 -230.66" />
<path id= "123" d=" M -28.2843 -175.547 L -28.2843 -170.604 " />
<path id= "124" d=" M 141.421 -77.5672 L 141.421 -69.4022 " />
<path d="M4.99994 -114.295 A5 2.88675 0 0 1 -1.9696 -111.656" />
<path d="M53.033 -83.6909 A5 2.88675 0 0 1 61.5685 -81.6497" />
<path d="M61.5685 -81.6497 A5 2.88675 0 0 1 51.5685 -81.6497" />
<path d="M51.5685 -81.6497 A5 2.88675 0 0 1 53.033 -83.6909" />
<path d="M109.602 -51.031 A5 2.88675 0 0 1 118.137 -48.9898" />
<path d="M118.137 -48.9898 A5 2.88675 0 0 1 108.137 -48.9898" />
<path d="M108.137 -48.9898 A5 2.88675 0 0 1 109.602 -51.031" />
<path id= "132" d=" M -113.137 -35.4616 L -113.137 -32.6599 " />
<path id= "133" d=" M -98.9949 -24.4949 L -113.137 -32.6599 " />
<path id= "134" d=" M 0 -130.639 L -56.5685 -163.299 " />
<path id= "135" d=" M -58.6396 -162.104 L -56.5685 -163.299 " />
<path id= "136" d=" M -56.5685 -163.299 L -56.5685 -65.3197 " />
<path id= "137" d=" M -113.137 -32.6599 L -110.711 -34.0607 " />
<path id= "138" d=" M -63.1645 -61.5116 L -56.5685 -65.3197 " />
<path id= "139" d=" M -98.9949 -24.4949 L -84.8528 -32.6599 " />
<path id= "140" d=" M -42.4264 -57.1548 L -56.5685 -65.3197 " />
<path id= "141" d=" M -56.5685 -48.9898 L -42.4264 -57.1548 " />
<path id= "142" d=" M -84.8528 -32.6599 L -56.5685 -48.9898 " />
<path id= "143" d=" M 0 -130.639 L 0 -114.31 " />
<path id= "144" d=" M 0 -114.31 L -42.4264 -57.1548 " />
<path id= "145" d=" M -14.5786 -171.716 L -56.5685 -195.959 " />
<path id= "146" d=" M -56.5685 -195.959 L -56.5685 -293.939 " />
<path id= "147" d=" M -42.4264 -285.774 L -56.5685 -293.939 " />
<path id= "148" d=" M 0 -179.629 L -42.4264 -285.774 " />
<path id= "149" d=" M 0 -172.899 L 0 -179.629 " />
<path id= "150" d=" M -56.5685 -195.959 L -58.6396 -194.763 " />
<path id= "151" d=" M -56.5685 -293.939 L -61.6961 -290.978 " />
<path id= "152" d=" M -60.1041 -279.65 L -67.1751 -283.733 " />
<path id= "153" d=" M -60.1041 -83.6909 L -67.1751 -87.7734 " />
<path d="M-98.9949 -273.526 A5 2.88675 120 0 1 -96.4949 -273.774" />
<path d="M-96.4949 -273.774 A5 2.88675 120 0 1 -101.495 -265.114" />
<path d="M-101.495 -265.114 A5 2.88675 120 0 1 -98.9949 -273.526" />
<path d="M-98.9949 -208.207 A5 2.88675 120 0 1 -96.4949 -208.454" />
<path d="M-96.4949 -208.454 A5 2.88675 120 0 1 -101.495 -199.794" />
<path d="M-101.495 -199.794 A5 2.88675 120 0 1 -98.9949 -208.207" />
<path d="M-98.9949 -142.887 A5 2.88675 120 0 1 -96.4949 -143.135" />
<path d="M-96.4949 -143.135 A5 2.88675 120 0 1 -101.495 -134.474" />
<path d="M-101.495 -134.474 A5 2.88675 120 0 1 -98.9949 -142.887" />
<path d="M-98.9949 -77.5672 A5 2.88675 120 0 1 -96.4949 -77.8148" />
<path d="M-96.4949 -77.8148 A5 2.88675 120 0 1 -101.495 -69.1546" />
<path d="M-101.495 -69.1546 A5 2.88675 120 0 1 -98.9949 -77.5672" />
<path id= "166" d=" M 333.972 -189.732 L 333.972 -197.897 " />
<path d="M27.6042 -137.469 A5 2.88675 180 0 0 17.6529 -137.068" />
<path d="M17.6529 -137.068 A5 2.88675 180 0 0 27.6529 -137.068" />
<path d="M27.6529 -137.068 A5 2.88675 180 0 0 27.6042 -137.469" />
<path d="M106.826 -143.897 A5 2.88675 180 0 0 96.8743 -143.496" />
<path d="M96.8743 -143.496 A5 2.88675 180 0 0 106.874 -143.496" />
<path d="M106.874 -143.496 A5 2.88675 180 0 0 106.826 -143.897" />
<path d="M265.269 -156.754 A5 2.88675 180 0 0 255.317 -156.352" />
<path d="M255.317 -156.352 A5 2.88675 180 0 0 265.317 -156.352" />
<path d="M265.317 -156.352 A5 2.88675 180 0 0 265.269 -156.754" />
<path d="M186.047 -150.326 A5 2.88675 180 0 0 176.096 -149.924" />
<path d="M176.096 -149.924 A5 2.88675 180 0 0 186.096 -149.924" />
<path d="M186.096 -149.924 A5 2.88675 180 0 0 186.047 -150.326" />
<path d="M338.843 -165.639 A5 2.88675 180 0 0 334.539 -162.78" />
<path d="M334.539 -162.78 A5 2.88675 180 0 0 340.235 -159.921" />
<path d="M340.235 -159.921 A5 2.88675 180 0 0 344.539 -162.78" />
<path d="M344.539 -162.78 A5 2.88675 180 0 0 344.49 -163.182" />
<path d="M344.49 -163.182 A5 2.88675 180 0 0 338.843 -165.639" />
<path id= "184" d=" M 197.99 -306.186 L 197.99 -298.021 " />
<path id= "185" d=" M 367.696 -208.207 L 367.696 -200.042 " />
<path d="M226.274 -247.836 A5 2.88675 0 0 1 231.274 -244.949" />
<path d="M231.274 -244.949 A5 2.88675 0 0 1 224.305 -242.296" />
<path d="M279.307 -214.33 A5 2.88675 0 0 1 287.843 -212.289" />
<path d="M287.843 -212.289 A5 2.88675 0 0 1 277.843 -212.289" />
<path d="M277.843 -212.289 A5 2.88675 0 0 1 279.307 -214.33" />
<path id= "191" d=" M 226.274 -293.939 L 169.706 -326.599 " />
<path id= "192" d=" M 169.706 -326.599 L 169.706 -424.578 " />
<path id= "193" d=" M 183.848 -416.413 L 169.706 -424.578 " />
<path id= "194" d=" M 226.274 -310.269 L 183.848 -416.413 " />
<path id= "195" d=" M 226.274 -293.939 L 226.274 -310.269 " />
<path id= "196" d=" M 226.274 -293.939 L 224.203 -292.743 " />
<path id= "197" d=" M 169.706 -326.599 L 167.635 -325.403 " />
<path id= "198" d=" M 169.706 -424.578 L 164.578 -421.618 " />
<path id= "199" d=" M 113.137 -166.101 L 113.137 -163.299 " />
<path id= "200" d=" M 127.279 -155.134 L 113.137 -163.299 " />
<path id= "201" d=" M 226.274 -261.279 L 169.706 -293.939 " />
<path id= "202" d=" M 167.635 -292.743 L 169.706 -293.939 " />
<path id= "203" d=" M 169.706 -293.939 L 169.706 -195.959 " />
<path id= "204" d=" M 113.137 -163.299 L 115.563 -164.7 " />
<path id= "205" d=" M 163.11 -192.151 L 169.706 -195.959 " />
<path id= "206" d=" M 127.279 -155.134 L 141.421 -163.299 " />
<path id= "207" d=" M 183.848 -187.794 L 169.706 -195.959 " />
<path id= "208" d=" M 169.706 -179.629 L 183.848 -187.794 " />
<path id= "209" d=" M 141.421 -163.299 L 169.706 -179.629 " />
<path id= "210" d=" M 226.274 -261.279 L 226.274 -244.949 " />
<path id= "211" d=" M 226.274 -244.949 L 183.848 -187.794 " />
<path id= "212" d=" M 166.17 -410.29 L 159.099 -414.372 " />
<path id= "213" d=" M 166.17 -214.33 L 159.099 -218.413 " />
<path d="M127.279 -404.166 A5 2.88675 120 0 1 129.779 -404.413" />
<path d="M129.779 -404.413 A5 2.88675 120 0 1 124.779 -395.753" />
<path d="M124.779 -395.753 A5 2.88675 120 0 1 127.279 -404.166" />
<path d="M127.279 -338.846 A5 2.88675 120 0 1 129.779 -339.094" />
<path d="M129.779 -339.094 A5 2.88675 120 0 1 124.779 -330.433" />
<path d="M124.779 -330.433 A5 2.88675 120 0 1 127.279 -338.846" />
<path d="M127.279 -273.526 A5 2.88675 120 0 1 129.779 -273.774" />
<path d="M129.779 -273.774 A5 2.88675 120 0 1 124.779 -265.114" />
<path d="M124.779 -265.114 A5 2.88675 120 0 1 127.279 -273.526" />
<path d="M127.279 -208.207 A5 2.88675 120 0 1 129.779 -208.454" />
<path d="M129.779 -208.454 A5 2.88675 120 0 1 124.779 -199.794" />
<path d="M124.779 -199.794 A5 2.88675 120 0 1 127.279 -208.207" />
<path d="M229.81 -198 A5 2.88675 180 0 0 221.274 -195.959" />
<path d="M221.274 -195.959 A5 2.88675 180 0 0 231.274 -195.959" />
<path d="M231.274 -195.959 A5 2.88675 180 0 0 229.81 -198" />
</g>
</g>



<g id="Ortho_1_0"
   transform="rotate(-90,311.642,262.107) translate(311.642,262.107) scale(0.125,0.125)"
  >
<g   fill="none"
   stroke="rgb(0, 0, 0)"
   stroke-linecap="butt"
   stroke-linejoin="miter"
   stroke-width="2.800000"
   transform="scale(1,-1)"
  >
<path id= "1" d=" M 40 980 L 40 1000 " />
<path id= "2" d=" M 40 920 L 40 980 " />
<path id= "3" d=" M 40 980 L 20 980 " />
<path id= "4" d=" M -40 980 L -40 1000 " />
<path id= "5" d=" M -20 980 L -40 980 " />
<path id= "6" d=" M 20 980 L -20 980 " />
<path id= "7" d=" M 40 920 L 20 920 " />
<path id= "8" d=" M 20 920 L 20 980 " />
<path id= "9" d=" M 20 920 L -20 920 " />
<path id= "10" d=" M -20 920 L -40 920 " />
<path id= "11" d=" M -40 920 L -40 980 " />
<circle cx ="0" cy ="960" r ="5" /><path id= "13" d=" M -20 920 L -20 980 " />
<path id= "14" d=" M -40 640 L -40 920 " />
<path id= "15" d=" M 40 920 L 40 640 " />
<path d="M40 640 A40 40 0 0 0 -40 640" /><path d="M-5 640 A5 5 0 0 0 -1.22465e-15 645" /><path d="M0 645 A5 5 0 0 0 5 640" /><path d="M5 640 A5 5 0 1 0 -5 640" /><circle cx ="0" cy ="880" r ="5" /><circle cx ="0" cy ="800" r ="5" /><circle cx ="0" cy ="720" r ="5" /><path id= "23" d=" M -40 1005 L -40 1015 " />
<path id= "24" d=" M 40 1005 L 40 1015 " />
<path d="M-40 1005 A5 5 0 0 1 -35 1000" /><path d="M-35,1000 L-34.7799,1000  L-34.1225,1000  L-33.0359,1000  L-31.5339,1000  L-29.6353,1000  L-27.3641,1000  L-24.7487,1000  L-21.8221,1000  L-18.6211,1000  L-15.1859,1000  L-11.5598,1000  L-7.78823,1000  L-3.91876,1000  L1.33227e-14,1000 " /><path d="M-40 1015 A5 5 0 0 0 -35 1020" /><path d="M-35,1020 L-34.7799,1020  L-34.1225,1020  L-33.0359,1020  L-31.5339,1020  L-29.6353,1020  L-27.3641,1020  L-24.7487,1020  L-21.8221,1020  L-18.6211,1020  L-15.1859,1020  L-11.5598,1020  L-7.78823,1020  L-3.91876,1020  L1.33227e-14,1020 " /><path d="M0,1000 L3.91876,1000  L7.78823,1000  L11.5598,1000  L15.1859,1000  L18.6211,1000  L21.8221,1000  L24.7487,1000  L27.3641,1000  L29.6353,1000  L31.5339,1000  L33.0359,1000  L34.1225,1000  L34.7799,1000  L35,1000 " /><path d="M40 1005 A5 5 0 0 0 35 1000" /><path d="M0,1020 L3.91876,1020  L7.78823,1020  L11.5598,1020  L15.1859,1020  L18.6211,1020  L21.8221,1020  L24.7487,1020  L27.3641,1020  L29.6353,1020  L31.5339,1020  L33.0359,1020  L34.1225,1020  L34.7799,1020  L35,1020 " /><path d="M40 1015 A5 5 0 0 1 35 1020" /><path id= "33" d=" M -40 -260 L -40 -280 " />
<path id= "34" d=" M -40 -200 L -40 -260 " />
<path id= "35" d=" M -40 -260 L -20 -260 " />
<path id= "36" d=" M 40 -260 L 40 -280 " />
<path id= "37" d=" M 20 -260 L 40 -260 " />
<path id= "38" d=" M -20 -260 L 20 -260 " />
<path id= "39" d=" M -40 -200 L -20 -200 " />
<path id= "40" d=" M -20 -200 L -20 -260 " />
<path id= "41" d=" M -20 -200 L 20 -200 " />
<path id= "42" d=" M 20 -200 L 40 -200 " />
<path id= "43" d=" M 40 -200 L 40 -260 " />
<circle cx ="-1.17566e-13" cy ="-240" r ="5" /><path id= "45" d=" M 20 -200 L 20 -260 " />
<path id= "46" d=" M 40 80 L 40 -200 " />
<path id= "47" d=" M 40 80 L 40 -200 " />
<path id= "48" d=" M -40 -200 L -40 80 " />
<path d="M-40 80 A40 40 0 0 0 40 80" /><path d="M5 80 A5 5 0 0 0 -7.77651e-14 75" /><path d="M-7.89897e-14 75 A5 5 0 0 0 -5 80" /><path d="M-5 80 A5 5 0 1 0 5 80" /><circle cx ="-1.07769e-13" cy ="-160" r ="5" /><circle cx ="-9.79717e-14" cy ="-80" r ="5" /><circle cx ="-8.81746e-14" cy ="0" r ="5" /><path id= "56" d=" M 40 -285 L 40 -295 " />
<path id= "57" d=" M -40 -285 L -40 -295 " />
<path d="M40 -285 A5 5 0 0 1 35 -280" /><path d="M35,-280 L34.7799,-280  L34.1225,-280  L33.0359,-280  L31.5339,-280  L29.6353,-280  L27.3641,-280  L24.7487,-280  L21.8221,-280  L18.6211,-280  L15.1859,-280  L11.5598,-280  L7.78823,-280  L3.91876,-280  L-1.35891e-13,-280 " /><path d="M40 -295 A5 5 0 0 0 35 -300" /><path d="M35,-300 L34.7799,-300  L34.1225,-300  L33.0359,-300  L31.5339,-300  L29.6353,-300  L27.3641,-300  L24.7487,-300  L21.8221,-300  L18.6211,-300  L15.1859,-300  L11.5598,-300  L7.78823,-300  L3.91876,-300  L-1.38334e-13,-300 " /><path d="M-1.22569e-13,-280 L-3.91876,-280  L-7.78823,-280  L-11.5598,-280  L-15.1859,-280  L-18.6211,-280  L-21.8221,-280  L-24.7487,-280  L-27.3641,-280  L-29.6353,-280  L-31.5339,-280  L-33.0359,-280  L-34.1225,-280  L-34.7799,-280  L-35,-280 " /><path d="M-40 -285 A5 5 0 0 0 -35 -280" /><path d="M-1.24789e-13,-300 L-3.91876,-300  L-7.78823,-300  L-11.5598,-300  L-15.1859,-300  L-18.6211,-300  L-21.8221,-300  L-24.7487,-300  L-27.3641,-300  L-29.6353,-300  L-31.5339,-300  L-33.0359,-300  L-34.1225,-300  L-34.7799,-300  L-35,-300 " /><path d="M-40 -295 A5 5 0 0 1 -35 -300" /><path id= "66" d=" M 40 0 L 40 120 " />
<path id= "67" d=" M 40 520 L 40 640 " />
<path id= "68" d=" M 40 0 L 40 120 " />
<path id= "69" d=" M 40 200 L 40 358.943 " />
<path id= "70" d=" M 40 520 L 40 640 " />
<path id= "71" d=" M -40 800 L -40 487.041 " />
<path id= "72" d=" M -40 471.868 L -40 80 " />
<circle cx ="-2.44929e-15" cy ="240" r ="5" /><circle cx ="-2.44929e-15" cy ="320" r ="5" /><circle cx ="-2.44929e-15" cy ="400" r ="5" /><circle cx ="-2.44929e-15" cy ="560" r ="5" /><path id= "77" d=" M 0 120 L 200 120 " />
<path id= "78" d=" M 159.772 200 L 0 200 " />
<path d="M-1.52e-14 200 A40 40 0 0 1 1.03014e-14 120" /><circle cx ="160" cy ="160" r ="5" /><circle cx ="80" cy ="160" r ="5" /><circle cx ="0" cy ="160" r ="5" /><path id= "83" d=" M 260 120 L 280 120 " />
<path id= "84" d=" M 200 120 L 260 120 " />
<path id= "85" d=" M 280 120 L 280 200 " />
<path id= "86" d=" M 260 120 L 260 140 " />
<path id= "87" d=" M 260 200 L 280 200 " />
<path id= "88" d=" M 260 180 L 260 200 " />
<path id= "89" d=" M 260 140 L 260 180 " />
<path id= "90" d=" M 200 120 L 200 140 " />
<path id= "91" d=" M 200 140 L 260 140 " />
<path id= "92" d=" M 200 140 L 200 180 " />
<path id= "93" d=" M 200 180 L 200 200 " />
<path id= "94" d=" M 200 200 L 260 200 " />
<circle cx ="240" cy ="160" r ="5" /><path id= "96" d=" M 200 180 L 260 180 " />
<path id= "97" d=" M 285 120 L 295 120 " />
<path id= "98" d=" M 285 200 L 295 200 " />
<path id= "99" d=" M 285 200 L 295 200 " />
<path d="M285 200 A5 5 0 0 1 280 195" /><path d="M295 200 A5 5 0 0 0 300 195" /><path d="M285 200 A5 5 0 0 1 280 195" /><path d="M280,195 L280,194.122  L280,191.534  L280,187.364  L280,181.822  L280,175.186  L280,167.788  L280,160  L280,152.212  L280,144.814  L280,138.178  L280,132.636  L280,128.466  L280,125.878  L280,125 " /><path d="M285 120 A5 5 0 0 0 280 125" /><path d="M295 200 A5 5 0 0 0 300 195" /><path d="M300,195 L300,194.122  L300,191.534  L300,187.364  L300,181.822  L300,175.186  L300,167.788  L300,160  L300,152.212  L300,144.814  L300,138.178  L300,132.636  L300,128.466  L300,125.878  L300,125 " /><path d="M295 120 A5 5 0 0 1 300 125" /><path id= "108" d=" M 200 146.616 L -32.6714 455.382 " />
<path d="M-32.6714 455.382 A40 40 0 0 0 -24.7986 511.4" /><path d="M-24.7986 511.4 A40 40 0 0 0 31.2194 503.527" /><path d="M-24.7986 511.4 A40 40 0 0 0 31.2194 503.527" /><path id= "112" d=" M 31.2194 503.527 L 259.943 200 " />
<circle cx ="191.855" cy ="223.891" r ="5" /><circle cx ="143.71" cy ="287.782" r ="5" /><circle cx ="47.4192" cy ="415.563" r ="5" /><circle cx ="95.5644" cy ="351.673" r ="5" /><path d="M3.26717 482.463 A5 5 0 0 0 -4.71919 476.445" /><path d="M-4.71919 476.445 A5 5 0 0 0 -3.73508 483.447" /><path d="M-3.73508 483.447 A5 5 0 0 0 3.26717 482.463" /><path id= "120" d=" M 79.0903 440 L 200 440 " />
<path id= "121" d=" M 200 520 L 0 520 " />
<path d="M-1.52e-14 520 A40 40 0 0 1 -24.3978 511.698" /><circle cx ="160" cy ="480" r ="5" /><circle cx ="80" cy ="480" r ="5" /><path d="M-3.35512 483.707 A5 5 0 0 1 2.62912 475.747" /><path id= "126" d=" M 260 440 L 280 440 " />
<path id= "127" d=" M 200 440 L 260 440 " />
<path id= "128" d=" M 280 440 L 280 520 " />
<path id= "129" d=" M 260 440 L 260 460 " />
<path id= "130" d=" M 260 520 L 280 520 " />
<path id= "131" d=" M 260 500 L 260 520 " />
<path id= "132" d=" M 260 460 L 260 500 " />
<path id= "133" d=" M 200 440 L 200 460 " />
<path id= "134" d=" M 200 460 L 260 460 " />
<path id= "135" d=" M 200 460 L 200 500 " />
<path id= "136" d=" M 200 500 L 200 520 " />
<path id= "137" d=" M 200 520 L 260 520 " />
<circle cx ="240" cy ="480" r ="5" /><path id= "139" d=" M 200 500 L 260 500 " />
<path id= "140" d=" M 285 440 L 295 440 " />
<path id= "141" d=" M 285 440 L 295 440 " />
<path id= "142" d=" M 285 520 L 295 520 " />
<path d="M285 520 A5 5 0 0 1 280 515" /><path d="M295 520 A5 5 0 0 0 300 515" /><path d="M285 520 A5 5 0 0 1 280 515" /><path d="M280,515 L280,514.122  L280,511.534  L280,507.364  L280,501.822  L280,495.186  L280,487.788  L280,480  L280,472.212  L280,464.814  L280,458.178  L280,452.636  L280,448.466  L280,445.878  L280,445 " /><path d="M285 440 A5 5 0 0 0 280 445" /><path d="M295 520 A5 5 0 0 0 300 515" /><path d="M300,515 L300,514.122  L300,511.534  L300,507.364  L300,501.822  L300,495.186  L300,487.788  L300,480  L300,472.212  L300,464.814  L300,458.178  L300,452.636  L300,448.466  L300,445.878  L300,445 " /><path d="M295 440 A5 5 0 0 1 300 445" /><path id= "151" d=" M 120 200 L 120 252.78 " />
<path id= "152" d=" M 120 385.711 L 120 440 " />
<path id= "153" d=" M 200 440 L 200 279.547 " />
<path id= "154" d=" M 200 440 L 200 279.547 " />
<circle cx ="160" cy ="400" r ="5" /><path id= "156" d=" M 40 200 L 40 358.943 " />
<path id= "157" d=" M 40 200 L 40 358.943 " />
<path id= "158" d=" M 120 440 L 120 385.711 " />
<path id= "159" d=" M 120 252.78 L 120 200 " />
<circle cx ="80" cy ="240" r ="5" /></g>
</g>



</svg>

